<?xml version="1.0" encoding="UTF-8" standalone="no"?>
<!DOCTYPE svg PUBLIC "-//W3C//DTD SVG 1.1//EN"
 "http://www.w3.org/Graphics/SVG/1.1/DTD/svg11.dtd">
<!-- Generated by graphviz version 2.43.0 (0)
 -->
<!-- Title: d19 Pages: 1 -->
<svg width="1108pt" height="392pt"
 viewBox="0.00 0.00 1108.33 392.00" xmlns="http://www.w3.org/2000/svg" xmlns:xlink="http://www.w3.org/1999/xlink">
<g id="graph0" class="graph" transform="scale(1 1) rotate(0) translate(4 388)">
<title>d19</title>
<polygon fill="white" stroke="transparent" points="-4,4 -4,-388 1104.33,-388 1104.33,4 -4,4"/>
<!-- in -->
<g id="node1" class="node">
<title>in</title>
<ellipse fill="none" stroke="black" cx="391.33" cy="-366" rx="27" ry="18"/>
<text text-anchor="middle" x="391.33" y="-362.3" font-family="Times,serif" font-size="14.00">in</text>
</g>
<!-- px -->
<g id="node2" class="node">
<title>px</title>
<ellipse fill="none" stroke="black" cx="461.33" cy="-279" rx="27" ry="18"/>
<text text-anchor="middle" x="461.33" y="-275.3" font-family="Times,serif" font-size="14.00">px</text>
</g>
<!-- in&#45;&gt;px -->
<g id="edge17" class="edge">
<title>in&#45;&gt;px</title>
<path fill="none" stroke="black" d="M403.84,-349.8C414.59,-336.75 430.25,-317.74 442.51,-302.85"/>
<polygon fill="black" stroke="black" points="445.26,-305.01 448.92,-295.06 439.86,-300.56 445.26,-305.01"/>
<text text-anchor="middle" x="459.33" y="-318.8" font-family="Times,serif" font-size="14.00">s&lt;1351</text>
</g>
<!-- qqz -->
<g id="node12" class="node">
<title>qqz</title>
<ellipse fill="none" stroke="black" cx="315.33" cy="-279" rx="27.1" ry="18"/>
<text text-anchor="middle" x="315.33" y="-275.3" font-family="Times,serif" font-size="14.00">qqz</text>
</g>
<!-- in&#45;&gt;qqz -->
<g id="edge18" class="edge">
<title>in&#45;&gt;qqz</title>
<path fill="none" stroke="black" d="M374.1,-351.93C366.41,-345.7 357.5,-337.9 350.33,-330 343.24,-322.2 336.38,-312.91 330.63,-304.47"/>
<polygon fill="black" stroke="black" points="333.52,-302.5 325.09,-296.08 327.68,-306.36 333.52,-302.5"/>
<text text-anchor="middle" x="384.33" y="-318.8" font-family="Times,serif" font-size="14.00">s&gt;=1351</text>
</g>
<!-- qkq -->
<g id="node3" class="node">
<title>qkq</title>
<ellipse fill="none" stroke="black" cx="680.33" cy="-192" rx="27.9" ry="18"/>
<text text-anchor="middle" x="680.33" y="-188.3" font-family="Times,serif" font-size="14.00">qkq</text>
</g>
<!-- px&#45;&gt;qkq -->
<g id="edge1" class="edge">
<title>px&#45;&gt;qkq</title>
<path fill="none" stroke="black" d="M484.35,-269.06C523.35,-253.93 602.54,-223.19 647.4,-205.78"/>
<polygon fill="black" stroke="black" points="648.9,-208.95 656.95,-202.07 646.36,-202.43 648.9,-208.95"/>
<text text-anchor="middle" x="612.83" y="-231.8" font-family="Times,serif" font-size="14.00">a&lt;2006</text>
</g>
<!-- A -->
<g id="node4" class="node">
<title>A</title>
<ellipse fill="none" stroke="black" cx="243.33" cy="-18" rx="27" ry="18"/>
<text text-anchor="middle" x="243.33" y="-14.3" font-family="Times,serif" font-size="14.00">A</text>
</g>
<!-- px&#45;&gt;A -->
<g id="edge2" class="edge">
<title>px&#45;&gt;A</title>
<path fill="none" stroke="black" d="M441.27,-266.84C410.19,-248.33 351.14,-208.1 324.33,-156 303.46,-115.46 339.34,-91.44 313.33,-54 304.98,-42 291.29,-33.9 278.22,-28.55"/>
<polygon fill="black" stroke="black" points="279.04,-25.12 268.44,-24.97 276.63,-31.69 279.04,-25.12"/>
<text text-anchor="middle" x="393.83" y="-144.8" font-family="Times,serif" font-size="14.00">a&gt;=2006, m&gt;2090</text>
</g>
<!-- rfg -->
<g id="node5" class="node">
<title>rfg</title>
<ellipse fill="none" stroke="black" cx="788.33" cy="-192" rx="27" ry="18"/>
<text text-anchor="middle" x="788.33" y="-188.3" font-family="Times,serif" font-size="14.00">rfg</text>
</g>
<!-- px&#45;&gt;rfg -->
<g id="edge3" class="edge">
<title>px&#45;&gt;rfg</title>
<path fill="none" stroke="black" d="M487.5,-274.27C523.43,-268.88 589.89,-257.87 645.33,-243 684.18,-232.57 727.66,-216.76 756.36,-205.71"/>
<polygon fill="black" stroke="black" points="757.81,-208.9 765.87,-202.02 755.28,-202.38 757.81,-208.9"/>
<text text-anchor="middle" x="768.83" y="-231.8" font-family="Times,serif" font-size="14.00">a&gt;=2006, m&lt;=2090</text>
</g>
<!-- qkq&#45;&gt;A -->
<g id="edge13" class="edge">
<title>qkq&#45;&gt;A</title>
<path fill="none" stroke="black" d="M678.8,-173.78C677.13,-163.39 673.63,-150.39 666.33,-141 636.74,-102.97 616.91,-105.26 572.33,-87 471.56,-45.72 342.78,-28.48 280.45,-22.18"/>
<polygon fill="black" stroke="black" points="280.61,-18.68 270.32,-21.19 279.93,-25.64 280.61,-18.68"/>
<text text-anchor="middle" x="678.83" y="-101.3" font-family="Times,serif" font-size="14.00">x&lt;1416</text>
</g>
<!-- crn -->
<g id="node11" class="node">
<title>crn</title>
<ellipse fill="none" stroke="black" cx="744.33" cy="-105" rx="27" ry="18"/>
<text text-anchor="middle" x="744.33" y="-101.3" font-family="Times,serif" font-size="14.00">crn</text>
</g>
<!-- qkq&#45;&gt;crn -->
<g id="edge14" class="edge">
<title>qkq&#45;&gt;crn</title>
<path fill="none" stroke="black" d="M692.06,-175.41C701.72,-162.59 715.55,-144.22 726.56,-129.6"/>
<polygon fill="black" stroke="black" points="729.44,-131.59 732.66,-121.49 723.85,-127.37 729.44,-131.59"/>
<text text-anchor="middle" x="750.83" y="-144.8" font-family="Times,serif" font-size="14.00">x&gt;=1416</text>
</g>
<!-- rfg&#45;&gt;A -->
<g id="edge10" class="edge">
<title>rfg&#45;&gt;A</title>
<path fill="none" stroke="black" d="M763.87,-184.16C750.27,-180.6 732.97,-176.49 717.33,-174 619.57,-158.43 590.28,-183.96 495.33,-156 481.78,-152.01 479.83,-147.56 467.33,-141 451.84,-132.87 442.88,-136.95 432.33,-123 413.44,-98.05 440.48,-76.1 418.33,-54 399.29,-35.02 325.69,-25.69 280.22,-21.65"/>
<polygon fill="black" stroke="black" points="280.4,-18.15 270.14,-20.8 279.81,-25.13 280.4,-18.15"/>
<text text-anchor="middle" x="500.33" y="-101.3" font-family="Times,serif" font-size="14.00">s&gt;=537, x&lt;=2440</text>
</g>
<!-- R -->
<g id="node7" class="node">
<title>R</title>
<ellipse fill="none" stroke="black" cx="819.33" cy="-18" rx="27" ry="18"/>
<text text-anchor="middle" x="819.33" y="-14.3" font-family="Times,serif" font-size="14.00">R</text>
</g>
<!-- rfg&#45;&gt;R -->
<g id="edge9" class="edge">
<title>rfg&#45;&gt;R</title>
<path fill="none" stroke="black" d="M813.35,-185.19C859.21,-172.96 955.1,-139.67 988.33,-69 991.16,-62.97 992.53,-59.17 988.33,-54 972.04,-33.99 901.2,-25.07 856.56,-21.36"/>
<polygon fill="black" stroke="black" points="856.62,-17.86 846.38,-20.57 856.07,-24.84 856.62,-17.86"/>
<text text-anchor="middle" x="1038.33" y="-101.3" font-family="Times,serif" font-size="14.00">s&gt;=537, x&gt;2440</text>
</g>
<!-- gd -->
<g id="node9" class="node">
<title>gd</title>
<ellipse fill="none" stroke="black" cx="865.33" cy="-105" rx="27" ry="18"/>
<text text-anchor="middle" x="865.33" y="-101.3" font-family="Times,serif" font-size="14.00">gd</text>
</g>
<!-- rfg&#45;&gt;gd -->
<g id="edge8" class="edge">
<title>rfg&#45;&gt;gd</title>
<path fill="none" stroke="black" d="M801.74,-176.19C813.7,-162.99 831.38,-143.47 845.07,-128.36"/>
<polygon fill="black" stroke="black" points="847.69,-130.68 851.81,-120.92 842.5,-125.98 847.69,-130.68"/>
<text text-anchor="middle" x="855.83" y="-144.8" font-family="Times,serif" font-size="14.00">s&lt;537</text>
</g>
<!-- pv -->
<g id="node6" class="node">
<title>pv</title>
<ellipse fill="none" stroke="black" cx="272.33" cy="-105" rx="27" ry="18"/>
<text text-anchor="middle" x="272.33" y="-101.3" font-family="Times,serif" font-size="14.00">pv</text>
</g>
<!-- pv&#45;&gt;A -->
<g id="edge5" class="edge">
<title>pv&#45;&gt;A</title>
<path fill="none" stroke="black" d="M257.35,-89.68C252.22,-83.81 247.08,-76.61 244.33,-69 241.75,-61.9 240.81,-53.85 240.7,-46.32"/>
<polygon fill="black" stroke="black" points="244.2,-46.26 240.99,-36.16 237.2,-46.06 244.2,-46.26"/>
<text text-anchor="middle" x="278.83" y="-57.8" font-family="Times,serif" font-size="14.00">a&lt;=1716</text>
</g>
<!-- pv&#45;&gt;R -->
<g id="edge4" class="edge">
<title>pv&#45;&gt;R</title>
<path fill="none" stroke="black" d="M298.62,-99.8C352.92,-91.15 481.41,-70.72 589.33,-54 657.83,-43.39 737.86,-31.27 783.17,-24.44"/>
<polygon fill="black" stroke="black" points="783.74,-27.89 793.1,-22.94 782.69,-20.97 783.74,-27.89"/>
<text text-anchor="middle" x="617.83" y="-57.8" font-family="Times,serif" font-size="14.00">a&gt;1716</text>
</g>
<!-- lnx -->
<g id="node8" class="node">
<title>lnx</title>
<ellipse fill="none" stroke="black" cx="98.33" cy="-105" rx="27" ry="18"/>
<text text-anchor="middle" x="98.33" y="-101.3" font-family="Times,serif" font-size="14.00">lnx</text>
</g>
<!-- lnx&#45;&gt;A -->
<g id="edge6" class="edge">
<title>lnx&#45;&gt;A</title>
<path fill="none" stroke="black" d="M104.55,-87.4C109.46,-76.46 117.31,-62.6 128.33,-54 150.92,-36.36 182.38,-27.57 206.69,-23.22"/>
<polygon fill="black" stroke="black" points="207.31,-26.66 216.62,-21.61 206.19,-19.75 207.31,-26.66"/>
<text text-anchor="middle" x="159.33" y="-57.8" font-family="Times,serif" font-size="14.00">m&gt;1548</text>
</g>
<!-- lnx&#45;&gt;A -->
<g id="edge7" class="edge">
<title>lnx&#45;&gt;A</title>
<path fill="none" stroke="black" d="M76.4,-94.09C61.09,-86.66 42.65,-76.53 38.33,-69 35.01,-63.22 34.03,-59.1 38.33,-54 59.39,-29.04 153.09,-21.88 206.22,-19.82"/>
<polygon fill="black" stroke="black" points="206.4,-23.32 216.27,-19.48 206.16,-16.32 206.4,-23.32"/>
<text text-anchor="middle" x="75.33" y="-57.8" font-family="Times,serif" font-size="14.00">m&lt;=1548</text>
</g>
<!-- gd&#45;&gt;R -->
<g id="edge22" class="edge">
<title>gd&#45;&gt;R</title>
<path fill="none" stroke="black" d="M858.94,-87.42C854.9,-77.5 849.32,-64.77 843.33,-54 841.33,-50.41 839.06,-46.72 836.74,-43.15"/>
<polygon fill="black" stroke="black" points="839.47,-40.95 830.96,-34.63 833.68,-44.87 839.47,-40.95"/>
<text text-anchor="middle" x="879.83" y="-57.8" font-family="Times,serif" font-size="14.00">a&gt;3333</text>
</g>
<!-- gd&#45;&gt;R -->
<g id="edge23" class="edge">
<title>gd&#45;&gt;R</title>
<path fill="none" stroke="black" d="M886.74,-93.7C903.64,-84.12 922.77,-69.09 912.33,-54 899.64,-35.68 876.08,-26.93 855.85,-22.77"/>
<polygon fill="black" stroke="black" points="856.4,-19.31 845.95,-21.02 855.19,-26.21 856.4,-19.31"/>
<text text-anchor="middle" x="949.83" y="-57.8" font-family="Times,serif" font-size="14.00">a&lt;=3333</text>
</g>
<!-- qs -->
<g id="node10" class="node">
<title>qs</title>
<ellipse fill="none" stroke="black" cx="91.33" cy="-192" rx="27" ry="18"/>
<text text-anchor="middle" x="91.33" y="-188.3" font-family="Times,serif" font-size="14.00">qs</text>
</g>
<!-- qs&#45;&gt;A -->
<g id="edge11" class="edge">
<title>qs&#45;&gt;A</title>
<path fill="none" stroke="black" d="M69.96,-180.98C49.35,-170 19.42,-150.25 6.33,-123 -7.87,-93.46 4.12,-70.68 32.33,-54 61.11,-36.98 153.82,-26.59 206.27,-21.92"/>
<polygon fill="black" stroke="black" points="206.84,-25.38 216.5,-21.03 206.23,-18.41 206.84,-25.38"/>
<text text-anchor="middle" x="34.33" y="-101.3" font-family="Times,serif" font-size="14.00">s&gt;3448</text>
</g>
<!-- qs&#45;&gt;lnx -->
<g id="edge12" class="edge">
<title>qs&#45;&gt;lnx</title>
<path fill="none" stroke="black" d="M91.04,-173.84C91.03,-164.17 91.29,-151.89 92.33,-141 92.57,-138.42 92.9,-135.75 93.27,-133.08"/>
<polygon fill="black" stroke="black" points="96.76,-133.45 94.88,-123.02 89.84,-132.34 96.76,-133.45"/>
<text text-anchor="middle" x="126.33" y="-144.8" font-family="Times,serif" font-size="14.00">s&lt;=3448</text>
</g>
<!-- crn&#45;&gt;A -->
<g id="edge15" class="edge">
<title>crn&#45;&gt;A</title>
<path fill="none" stroke="black" d="M723.09,-93.4C698.52,-81.65 656.54,-63.17 618.33,-54 497.31,-24.97 348.97,-19.76 280.82,-19"/>
<polygon fill="black" stroke="black" points="280.61,-15.5 270.58,-18.91 280.55,-22.5 280.61,-15.5"/>
<text text-anchor="middle" x="693.83" y="-57.8" font-family="Times,serif" font-size="14.00">x&gt;2662</text>
</g>
<!-- crn&#45;&gt;R -->
<g id="edge16" class="edge">
<title>crn&#45;&gt;R</title>
<path fill="none" stroke="black" d="M750.76,-87.04C755.21,-76.74 761.86,-63.75 770.33,-54 776.14,-47.31 783.48,-41.2 790.69,-36.04"/>
<polygon fill="black" stroke="black" points="792.68,-38.92 799.01,-30.43 788.76,-33.12 792.68,-38.92"/>
<text text-anchor="middle" x="804.83" y="-57.8" font-family="Times,serif" font-size="14.00">x&lt;=2662</text>
</g>
<!-- qqz&#45;&gt;R -->
<g id="edge21" class="edge">
<title>qqz&#45;&gt;R</title>
<path fill="none" stroke="black" d="M332.79,-264.87C370.82,-237.02 464.86,-172.05 554.33,-141 580.01,-132.09 657.57,-143.59 675.33,-123 691,-104.82 674.99,-92.99 674.33,-69 674.14,-62.34 670.2,-59.24 674.33,-54 687.54,-37.22 743.95,-27.53 782.39,-22.76"/>
<polygon fill="black" stroke="black" points="783.18,-26.19 792.7,-21.55 782.36,-19.24 783.18,-26.19"/>
<text text-anchor="middle" x="629.83" y="-144.8" font-family="Times,serif" font-size="14.00">s&lt;=2770, m&gt;=1801</text>
</g>
<!-- qqz&#45;&gt;qs -->
<g id="edge19" class="edge">
<title>qqz&#45;&gt;qs</title>
<path fill="none" stroke="black" d="M288.15,-276.72C238.55,-273.86 136.03,-265.35 109.33,-243 102.41,-237.21 98.15,-228.55 95.53,-220.06"/>
<polygon fill="black" stroke="black" points="98.93,-219.23 93.14,-210.35 92.13,-220.9 98.93,-219.23"/>
<text text-anchor="middle" x="137.33" y="-231.8" font-family="Times,serif" font-size="14.00">s&gt;2770</text>
</g>
<!-- hdj -->
<g id="node13" class="node">
<title>hdj</title>
<ellipse fill="none" stroke="black" cx="174.33" cy="-192" rx="27" ry="18"/>
<text text-anchor="middle" x="174.33" y="-188.3" font-family="Times,serif" font-size="14.00">hdj</text>
</g>
<!-- qqz&#45;&gt;hdj -->
<g id="edge20" class="edge">
<title>qqz&#45;&gt;hdj</title>
<path fill="none" stroke="black" d="M288.51,-275.23C251.63,-270.81 188.23,-260.78 174.33,-243 169.29,-236.56 167.96,-228.08 168.29,-219.95"/>
<polygon fill="black" stroke="black" points="171.77,-220.34 169.44,-210 164.81,-219.53 171.77,-220.34"/>
<text text-anchor="middle" x="243.83" y="-231.8" font-family="Times,serif" font-size="14.00">s&lt;=2770, m&lt;1801</text>
</g>
<!-- hdj&#45;&gt;A -->
<g id="edge24" class="edge">
<title>hdj&#45;&gt;A</title>
<path fill="none" stroke="black" d="M172.63,-174.01C171.21,-152.75 171.05,-115.65 183.33,-87 191.18,-68.66 205.96,-51.82 218.88,-39.48"/>
<polygon fill="black" stroke="black" points="221.59,-41.74 226.61,-32.41 216.87,-36.58 221.59,-41.74"/>
<text text-anchor="middle" x="209.83" y="-101.3" font-family="Times,serif" font-size="14.00">m&gt;838</text>
</g>
<!-- hdj&#45;&gt;pv -->
<g id="edge25" class="edge">
<title>hdj&#45;&gt;pv</title>
<path fill="none" stroke="black" d="M190.07,-177.34C205.84,-163.67 230.3,-142.45 248.45,-126.71"/>
<polygon fill="black" stroke="black" points="251.03,-129.1 256.29,-119.91 246.45,-123.81 251.03,-129.1"/>
<text text-anchor="middle" x="261.83" y="-144.8" font-family="Times,serif" font-size="14.00">m&lt;=838</text>
</g>
</g>
</svg>
