<?xml version="1.0" encoding="UTF-8" standalone="no"?>
<!DOCTYPE svg PUBLIC "-//W3C//DTD SVG 1.1//EN"
 "http://www.w3.org/Graphics/SVG/1.1/DTD/svg11.dtd">
<!-- Generated by graphviz version 2.43.0 (0)
 -->
<!-- Title: x Pages: 1 -->
<svg width="1988pt" height="1052pt"
 viewBox="0.00 0.00 1988.00 1052.00" xmlns="http://www.w3.org/2000/svg" xmlns:xlink="http://www.w3.org/1999/xlink">
<g id="graph0" class="graph" transform="scale(1 1) rotate(0) translate(4 1048)">
<title>x</title>
<polygon fill="white" stroke="transparent" points="-4,4 -4,-1048 1984,-1048 1984,4 -4,4"/>
<!-- rq -->
<g id="node1" class="node">
<title>rq</title>
<ellipse fill="none" stroke="black" cx="683" cy="-882" rx="29.8" ry="18"/>
<text text-anchor="middle" x="683" y="-878.3" font-family="Times,serif" font-size="14.00">%rq</text>
</g>
<!-- ch -->
<g id="node2" class="node">
<title>ch</title>
<ellipse fill="none" stroke="black" cx="683" cy="-810" rx="30.59" ry="18"/>
<text text-anchor="middle" x="683" y="-806.3" font-family="Times,serif" font-size="14.00">%ch</text>
</g>
<!-- rq&#45;&gt;ch -->
<g id="edge1" class="edge">
<title>rq&#45;&gt;ch</title>
<path fill="none" stroke="black" d="M683,-863.7C683,-855.98 683,-846.71 683,-838.11"/>
<polygon fill="black" stroke="black" points="686.5,-838.1 683,-828.1 679.5,-838.1 686.5,-838.1"/>
</g>
<!-- sj -->
<g id="node3" class="node">
<title>sj</title>
<ellipse fill="none" stroke="black" cx="742" cy="-738" rx="27" ry="18"/>
<text text-anchor="middle" x="742" y="-734.3" font-family="Times,serif" font-size="14.00">&amp;sj</text>
</g>
<!-- rq&#45;&gt;sj -->
<g id="edge2" class="edge">
<title>rq&#45;&gt;sj</title>
<path fill="none" stroke="black" d="M697.22,-865.94C705.92,-855.91 716.58,-842.05 723,-828 732,-808.3 736.81,-784.17 739.33,-766.01"/>
<polygon fill="black" stroke="black" points="742.81,-766.45 740.57,-756.09 735.86,-765.58 742.81,-766.45"/>
</g>
<!-- ch&#45;&gt;sj -->
<g id="edge103" class="edge">
<title>ch&#45;&gt;sj</title>
<path fill="none" stroke="black" d="M696.09,-793.46C703.92,-784.18 713.99,-772.23 722.71,-761.88"/>
<polygon fill="black" stroke="black" points="725.58,-763.91 729.35,-754.01 720.23,-759.4 725.58,-763.91"/>
</g>
<!-- xp -->
<g id="node46" class="node">
<title>xp</title>
<ellipse fill="none" stroke="black" cx="995" cy="-666" rx="30.59" ry="18"/>
<text text-anchor="middle" x="995" y="-662.3" font-family="Times,serif" font-size="14.00">&amp;xp</text>
</g>
<!-- sj&#45;&gt;xp -->
<g id="edge91" class="edge">
<title>sj&#45;&gt;xp</title>
<path fill="none" stroke="black" d="M767.23,-731.53C806.62,-722.78 884.96,-704.5 950,-684 953.55,-682.88 957.24,-681.63 960.9,-680.34"/>
<polygon fill="black" stroke="black" points="962.23,-683.58 970.42,-676.85 959.82,-677 962.23,-683.58"/>
</g>
<!-- sn -->
<g id="node52" class="node">
<title>sn</title>
<ellipse fill="none" stroke="black" cx="763" cy="-594" rx="30.59" ry="18"/>
<text text-anchor="middle" x="763" y="-590.3" font-family="Times,serif" font-size="14.00">%sn</text>
</g>
<!-- sj&#45;&gt;sn -->
<g id="edge95" class="edge">
<title>sj&#45;&gt;sn</title>
<path fill="none" stroke="black" d="M744.53,-719.87C748.11,-695.67 754.69,-651.21 758.95,-622.39"/>
<polygon fill="black" stroke="black" points="762.46,-622.59 760.46,-612.19 755.53,-621.57 762.46,-622.59"/>
</g>
<!-- fd -->
<g id="node53" class="node">
<title>fd</title>
<ellipse fill="none" stroke="black" cx="749" cy="-522" rx="28.7" ry="18"/>
<text text-anchor="middle" x="749" y="-518.3" font-family="Times,serif" font-size="14.00">%fd</text>
</g>
<!-- sj&#45;&gt;fd -->
<g id="edge94" class="edge">
<title>sj&#45;&gt;fd</title>
<path fill="none" stroke="black" d="M736.31,-720.34C727.06,-690.88 710.97,-627.82 723,-576 725.22,-566.43 729.43,-556.59 733.82,-548.02"/>
<polygon fill="black" stroke="black" points="737.04,-549.44 738.76,-538.98 730.89,-546.08 737.04,-549.44"/>
</g>
<!-- qq -->
<g id="node54" class="node">
<title>qq</title>
<ellipse fill="none" stroke="black" cx="721" cy="-306" rx="31.4" ry="18"/>
<text text-anchor="middle" x="721" y="-302.3" font-family="Times,serif" font-size="14.00">%qq</text>
</g>
<!-- sj&#45;&gt;qq -->
<g id="edge92" class="edge">
<title>sj&#45;&gt;qq</title>
<path fill="none" stroke="black" d="M758.94,-723.65C770.63,-713.73 785.82,-699.32 796,-684 838.62,-619.87 860,-600 860,-523 860,-523 860,-523 860,-449 860,-388.67 795.14,-344.5 754.03,-322.57"/>
<polygon fill="black" stroke="black" points="755.39,-319.33 744.89,-317.85 752.17,-325.55 755.39,-319.33"/>
</g>
<!-- cn -->
<g id="node57" class="node">
<title>cn</title>
<ellipse fill="none" stroke="black" cx="877" cy="-666" rx="30.59" ry="18"/>
<text text-anchor="middle" x="877" y="-662.3" font-family="Times,serif" font-size="14.00">%cn</text>
</g>
<!-- sj&#45;&gt;cn -->
<g id="edge93" class="edge">
<title>sj&#45;&gt;cn</title>
<path fill="none" stroke="black" d="M760.53,-724.65C781.89,-712.62 817.03,-694.35 843.22,-681.61"/>
<polygon fill="black" stroke="black" points="844.93,-684.67 852.43,-677.19 841.9,-678.36 844.93,-684.67"/>
</g>
<!-- nf -->
<g id="node4" class="node">
<title>nf</title>
<ellipse fill="none" stroke="black" cx="1383" cy="-450" rx="28.7" ry="18"/>
<text text-anchor="middle" x="1383" y="-446.3" font-family="Times,serif" font-size="14.00">%nf</text>
</g>
<!-- sm -->
<g id="node5" class="node">
<title>sm</title>
<ellipse fill="none" stroke="black" cx="1417" cy="-378" rx="33.29" ry="18"/>
<text text-anchor="middle" x="1417" y="-374.3" font-family="Times,serif" font-size="14.00">%sm</text>
</g>
<!-- nf&#45;&gt;sm -->
<g id="edge3" class="edge">
<title>nf&#45;&gt;sm</title>
<path fill="none" stroke="black" d="M1391.06,-432.41C1395.08,-424.13 1400.04,-413.92 1404.54,-404.66"/>
<polygon fill="black" stroke="black" points="1407.78,-405.99 1409,-395.47 1401.48,-402.94 1407.78,-405.99"/>
</g>
<!-- rg -->
<g id="node6" class="node">
<title>rg</title>
<ellipse fill="none" stroke="black" cx="1305" cy="-882" rx="29.5" ry="18"/>
<text text-anchor="middle" x="1305" y="-878.3" font-family="Times,serif" font-size="14.00">&amp;rg</text>
</g>
<!-- nf&#45;&gt;rg -->
<g id="edge4" class="edge">
<title>nf&#45;&gt;rg</title>
<path fill="none" stroke="black" d="M1386.75,-467.95C1392.29,-494.48 1402,-547.48 1402,-593 1402,-739 1402,-739 1402,-739 1402,-789.76 1359.22,-835.73 1330.48,-860.88"/>
<polygon fill="black" stroke="black" points="1328.15,-858.27 1322.79,-867.41 1332.68,-863.6 1328.15,-858.27"/>
</g>
<!-- sm&#45;&gt;rg -->
<g id="edge101" class="edge">
<title>sm&#45;&gt;rg</title>
<path fill="none" stroke="black" d="M1421.54,-395.91C1428.25,-422.37 1440,-475.3 1440,-521 1440,-739 1440,-739 1440,-739 1440,-798.8 1376.33,-843.44 1336.44,-865.53"/>
<polygon fill="black" stroke="black" points="1334.75,-862.47 1327.6,-870.28 1338.06,-868.63 1334.75,-862.47"/>
</g>
<!-- cp -->
<g id="node30" class="node">
<title>cp</title>
<ellipse fill="none" stroke="black" cx="1448" cy="-306" rx="30.59" ry="18"/>
<text text-anchor="middle" x="1448" y="-302.3" font-family="Times,serif" font-size="14.00">%cp</text>
</g>
<!-- sm&#45;&gt;cp -->
<g id="edge102" class="edge">
<title>sm&#45;&gt;cp</title>
<path fill="none" stroke="black" d="M1424.35,-360.41C1427.92,-352.34 1432.31,-342.43 1436.33,-333.35"/>
<polygon fill="black" stroke="black" points="1439.64,-334.52 1440.49,-323.96 1433.24,-331.68 1439.64,-334.52"/>
</g>
<!-- cs -->
<g id="node28" class="node">
<title>cs</title>
<ellipse fill="none" stroke="black" cx="1305" cy="-954" rx="29.5" ry="18"/>
<text text-anchor="middle" x="1305" y="-950.3" font-family="Times,serif" font-size="14.00">%cs</text>
</g>
<!-- rg&#45;&gt;cs -->
<g id="edge24" class="edge">
<title>rg&#45;&gt;cs</title>
<path fill="none" stroke="black" d="M1310.86,-899.79C1311.7,-907.59 1311.94,-917.07 1311.6,-925.85"/>
<polygon fill="black" stroke="black" points="1308.09,-925.83 1310.88,-936.05 1315.07,-926.33 1308.09,-925.83"/>
</g>
<!-- zb -->
<g id="node29" class="node">
<title>zb</title>
<ellipse fill="none" stroke="black" cx="1537" cy="-810" rx="30.59" ry="18"/>
<text text-anchor="middle" x="1537" y="-806.3" font-family="Times,serif" font-size="14.00">%zb</text>
</g>
<!-- rg&#45;&gt;zb -->
<g id="edge25" class="edge">
<title>rg&#45;&gt;zb</title>
<path fill="none" stroke="black" d="M1331.54,-874.24C1367.98,-864.78 1435.44,-846.66 1492,-828 1495.54,-826.83 1499.21,-825.56 1502.86,-824.24"/>
<polygon fill="black" stroke="black" points="1504.21,-827.48 1512.38,-820.73 1501.78,-820.91 1504.21,-827.48"/>
</g>
<!-- rg&#45;&gt;cp -->
<g id="edge26" class="edge">
<title>rg&#45;&gt;cp</title>
<path fill="none" stroke="black" d="M1330.9,-873.19C1379.16,-856.84 1478,-814.19 1478,-739 1478,-739 1478,-739 1478,-449 1478,-407.93 1465.84,-361.6 1457,-333.35"/>
<polygon fill="black" stroke="black" points="1460.33,-332.25 1453.93,-323.81 1453.66,-334.4 1460.33,-332.25"/>
</g>
<!-- vz -->
<g id="node31" class="node">
<title>vz</title>
<ellipse fill="none" stroke="black" cx="1344" cy="-738" rx="29.8" ry="18"/>
<text text-anchor="middle" x="1344" y="-734.3" font-family="Times,serif" font-size="14.00">%vz</text>
</g>
<!-- rg&#45;&gt;vz -->
<g id="edge27" class="edge">
<title>rg&#45;&gt;vz</title>
<path fill="none" stroke="black" d="M1309.63,-864.15C1316.31,-839.81 1328.74,-794.57 1336.68,-765.67"/>
<polygon fill="black" stroke="black" points="1340.11,-766.39 1339.38,-755.82 1333.36,-764.54 1340.11,-766.39"/>
</g>
<!-- gp -->
<g id="node32" class="node">
<title>gp</title>
<ellipse fill="none" stroke="black" cx="1113" cy="-738" rx="30.59" ry="18"/>
<text text-anchor="middle" x="1113" y="-734.3" font-family="Times,serif" font-size="14.00">&amp;gp</text>
</g>
<!-- rg&#45;&gt;gp -->
<g id="edge28" class="edge">
<title>rg&#45;&gt;gp</title>
<path fill="none" stroke="black" d="M1276.64,-877.17C1244.46,-871.51 1192.03,-858.11 1158,-828 1139.34,-811.49 1127.44,-785.41 1120.59,-765.75"/>
<polygon fill="black" stroke="black" points="1123.89,-764.56 1117.47,-756.13 1117.23,-766.72 1123.89,-764.56"/>
</g>
<!-- pc -->
<g id="node7" class="node">
<title>pc</title>
<ellipse fill="none" stroke="black" cx="135" cy="-522" rx="30.59" ry="18"/>
<text text-anchor="middle" x="135" y="-518.3" font-family="Times,serif" font-size="14.00">%pc</text>
</g>
<!-- rz -->
<g id="node8" class="node">
<title>rz</title>
<ellipse fill="none" stroke="black" cx="115" cy="-450" rx="28.7" ry="18"/>
<text text-anchor="middle" x="115" y="-446.3" font-family="Times,serif" font-size="14.00">%rz</text>
</g>
<!-- pc&#45;&gt;rz -->
<g id="edge5" class="edge">
<title>pc&#45;&gt;rz</title>
<path fill="none" stroke="black" d="M130.16,-504.05C127.9,-496.14 125.15,-486.54 122.63,-477.69"/>
<polygon fill="black" stroke="black" points="125.91,-476.44 119.8,-467.79 119.18,-478.37 125.91,-476.44"/>
</g>
<!-- zp -->
<g id="node9" class="node">
<title>zp</title>
<ellipse fill="none" stroke="black" cx="256" cy="-1026" rx="29.8" ry="18"/>
<text text-anchor="middle" x="256" y="-1022.3" font-family="Times,serif" font-size="14.00">&amp;zp</text>
</g>
<!-- pc&#45;&gt;zp -->
<g id="edge6" class="edge">
<title>pc&#45;&gt;zp</title>
<path fill="none" stroke="black" d="M130.85,-539.93C124.73,-566.43 114,-619.39 114,-665 114,-883 114,-883 114,-883 114,-928.37 132.09,-939.75 164,-972 180.63,-988.82 203.71,-1002.09 222.59,-1011.15"/>
<polygon fill="black" stroke="black" points="221.2,-1014.36 231.74,-1015.37 224.13,-1008.01 221.2,-1014.36"/>
</g>
<!-- rz&#45;&gt;zp -->
<g id="edge30" class="edge">
<title>rz&#45;&gt;zp</title>
<path fill="none" stroke="black" d="M107.29,-467.64C95.93,-493.76 76,-546.21 76,-593 76,-883 76,-883 76,-883 76,-928.59 92.73,-941.93 127,-972 153.18,-994.97 190.66,-1008.86 218.49,-1016.62"/>
<polygon fill="black" stroke="black" points="217.7,-1020.03 228.26,-1019.21 219.49,-1013.26 217.7,-1020.03"/>
</g>
<!-- fr -->
<g id="node34" class="node">
<title>fr</title>
<ellipse fill="none" stroke="black" cx="115" cy="-378" rx="27.1" ry="18"/>
<text text-anchor="middle" x="115" y="-374.3" font-family="Times,serif" font-size="14.00">%fr</text>
</g>
<!-- rz&#45;&gt;fr -->
<g id="edge31" class="edge">
<title>rz&#45;&gt;fr</title>
<path fill="none" stroke="black" d="M115,-431.7C115,-423.98 115,-414.71 115,-406.11"/>
<polygon fill="black" stroke="black" points="118.5,-406.1 115,-396.1 111.5,-406.1 118.5,-406.1"/>
</g>
<!-- kb -->
<g id="node15" class="node">
<title>kb</title>
<ellipse fill="none" stroke="black" cx="173" cy="-594" rx="30.59" ry="18"/>
<text text-anchor="middle" x="173" y="-590.3" font-family="Times,serif" font-size="14.00">%kb</text>
</g>
<!-- zp&#45;&gt;kb -->
<g id="edge39" class="edge">
<title>zp&#45;&gt;kb</title>
<path fill="none" stroke="black" d="M236.92,-1011.7C206.9,-989.04 152,-939.84 152,-883 152,-883 152,-883 152,-737 152,-696.56 160.44,-650.33 166.62,-621.9"/>
<polygon fill="black" stroke="black" points="170.08,-622.45 168.85,-611.93 163.25,-620.92 170.08,-622.45"/>
</g>
<!-- rd -->
<g id="node16" class="node">
<title>rd</title>
<ellipse fill="none" stroke="black" cx="248" cy="-810" rx="29.8" ry="18"/>
<text text-anchor="middle" x="248" y="-806.3" font-family="Times,serif" font-size="14.00">%rd</text>
</g>
<!-- zp&#45;&gt;rd -->
<g id="edge38" class="edge">
<title>zp&#45;&gt;rd</title>
<path fill="none" stroke="black" d="M254.35,-1007.63C252.16,-983.51 248.38,-938.49 247,-900 246.43,-884.01 246.85,-880 247,-864 247.08,-855.68 247.23,-846.63 247.38,-838.4"/>
<polygon fill="black" stroke="black" points="250.89,-838.25 247.59,-828.18 243.89,-838.11 250.89,-838.25"/>
</g>
<!-- lk -->
<g id="node17" class="node">
<title>lk</title>
<ellipse fill="none" stroke="black" cx="229" cy="-738" rx="27.9" ry="18"/>
<text text-anchor="middle" x="229" y="-734.3" font-family="Times,serif" font-size="14.00">%lk</text>
</g>
<!-- zp&#45;&gt;lk -->
<g id="edge37" class="edge">
<title>zp&#45;&gt;lk</title>
<path fill="none" stroke="black" d="M250.55,-1008.11C239.97,-974.35 216.99,-895.92 209,-828 207.13,-812.11 206.13,-807.74 209,-792 210.67,-782.82 213.85,-773.17 217.19,-764.65"/>
<polygon fill="black" stroke="black" points="220.49,-765.85 221.11,-755.27 214.03,-763.15 220.49,-765.85"/>
</g>
<!-- xl -->
<g id="node24" class="node">
<title>xl</title>
<ellipse fill="none" stroke="black" cx="727" cy="-954" rx="27.1" ry="18"/>
<text text-anchor="middle" x="727" y="-950.3" font-family="Times,serif" font-size="14.00">&amp;xl</text>
</g>
<!-- zp&#45;&gt;xl -->
<g id="edge40" class="edge">
<title>zp&#45;&gt;xl</title>
<path fill="none" stroke="black" d="M284.75,-1020.73C366.5,-1008.58 600.17,-973.85 690.62,-960.41"/>
<polygon fill="black" stroke="black" points="691.3,-963.84 700.67,-958.91 690.27,-956.92 691.3,-963.84"/>
</g>
<!-- vl -->
<g id="node40" class="node">
<title>vl</title>
<ellipse fill="none" stroke="black" cx="420" cy="-954" rx="27.9" ry="18"/>
<text text-anchor="middle" x="420" y="-950.3" font-family="Times,serif" font-size="14.00">%vl</text>
</g>
<!-- zp&#45;&gt;vl -->
<g id="edge36" class="edge">
<title>zp&#45;&gt;vl</title>
<path fill="none" stroke="black" d="M277.91,-1013.44C305.84,-1000.63 353.99,-980.07 386.5,-967.06"/>
<polygon fill="black" stroke="black" points="388.03,-970.22 396.04,-963.28 385.46,-963.71 388.03,-970.22"/>
</g>
<!-- xt -->
<g id="node10" class="node">
<title>xt</title>
<ellipse fill="none" stroke="black" cx="1727" cy="-882" rx="28.7" ry="18"/>
<text text-anchor="middle" x="1727" y="-878.3" font-family="Times,serif" font-size="14.00">%xt</text>
</g>
<!-- bc -->
<g id="node11" class="node">
<title>bc</title>
<ellipse fill="none" stroke="black" cx="1687" cy="-810" rx="30.59" ry="18"/>
<text text-anchor="middle" x="1687" y="-806.3" font-family="Times,serif" font-size="14.00">%bc</text>
</g>
<!-- xt&#45;&gt;bc -->
<g id="edge7" class="edge">
<title>xt&#45;&gt;bc</title>
<path fill="none" stroke="black" d="M1717.72,-864.76C1712.95,-856.4 1707.01,-846.02 1701.63,-836.61"/>
<polygon fill="black" stroke="black" points="1704.51,-834.58 1696.5,-827.63 1698.43,-838.05 1704.51,-834.58"/>
</g>
<!-- pp -->
<g id="node19" class="node">
<title>pp</title>
<ellipse fill="none" stroke="black" cx="1791" cy="-738" rx="30.59" ry="18"/>
<text text-anchor="middle" x="1791" y="-734.3" font-family="Times,serif" font-size="14.00">&amp;pp</text>
</g>
<!-- bc&#45;&gt;pp -->
<g id="edge54" class="edge">
<title>bc&#45;&gt;pp</title>
<path fill="none" stroke="black" d="M1706.56,-795.83C1722.54,-785.08 1745.32,-769.74 1763.2,-757.71"/>
<polygon fill="black" stroke="black" points="1765.18,-760.59 1771.53,-752.11 1761.28,-754.79 1765.18,-760.59"/>
</g>
<!-- nb -->
<g id="node37" class="node">
<title>nb</title>
<ellipse fill="none" stroke="black" cx="1693" cy="-666" rx="31.4" ry="18"/>
<text text-anchor="middle" x="1693" y="-662.3" font-family="Times,serif" font-size="14.00">%nb</text>
</g>
<!-- bc&#45;&gt;nb -->
<g id="edge53" class="edge">
<title>bc&#45;&gt;nb</title>
<path fill="none" stroke="black" d="M1687.72,-791.87C1688.75,-767.67 1690.62,-723.21 1691.84,-694.39"/>
<polygon fill="black" stroke="black" points="1695.35,-694.33 1692.27,-684.19 1688.35,-694.03 1695.35,-694.33"/>
</g>
<!-- nt -->
<g id="node12" class="node">
<title>nt</title>
<ellipse fill="none" stroke="black" cx="749" cy="-450" rx="29.5" ry="18"/>
<text text-anchor="middle" x="749" y="-446.3" font-family="Times,serif" font-size="14.00">%nt</text>
</g>
<!-- nt&#45;&gt;sj -->
<g id="edge9" class="edge">
<title>nt&#45;&gt;sj</title>
<path fill="none" stroke="black" d="M762.45,-466.2C770.69,-476.28 780.81,-490.15 787,-504 806.8,-548.3 813.92,-564.72 803,-612 794.37,-649.34 773,-688.43 757.99,-712.75"/>
<polygon fill="black" stroke="black" points="754.97,-710.98 752.6,-721.31 760.89,-714.71 754.97,-710.98"/>
</g>
<!-- kq -->
<g id="node13" class="node">
<title>kq</title>
<ellipse fill="none" stroke="black" cx="721" cy="-378" rx="30.59" ry="18"/>
<text text-anchor="middle" x="721" y="-374.3" font-family="Times,serif" font-size="14.00">%kq</text>
</g>
<!-- nt&#45;&gt;kq -->
<g id="edge8" class="edge">
<title>nt&#45;&gt;kq</title>
<path fill="none" stroke="black" d="M742.36,-432.41C739.13,-424.34 735.17,-414.43 731.54,-405.35"/>
<polygon fill="black" stroke="black" points="734.75,-403.94 727.78,-395.96 728.25,-406.54 734.75,-403.94"/>
</g>
<!-- kq&#45;&gt;sj -->
<g id="edge69" class="edge">
<title>kq&#45;&gt;sj</title>
<path fill="none" stroke="black" d="M710.13,-395.25C694.11,-420.85 666,-472.62 666,-521 666,-595 666,-595 666,-595 666,-641.88 698.6,-688.26 721.09,-714.69"/>
<polygon fill="black" stroke="black" points="718.48,-717.02 727.7,-722.23 723.74,-712.4 718.48,-717.02"/>
</g>
<!-- kq&#45;&gt;qq -->
<g id="edge70" class="edge">
<title>kq&#45;&gt;qq</title>
<path fill="none" stroke="black" d="M721,-359.7C721,-351.98 721,-342.71 721,-334.11"/>
<polygon fill="black" stroke="black" points="724.5,-334.1 721,-324.1 717.5,-334.1 724.5,-334.1"/>
</g>
<!-- hc -->
<g id="node14" class="node">
<title>hc</title>
<ellipse fill="none" stroke="black" cx="229" cy="-666" rx="30.59" ry="18"/>
<text text-anchor="middle" x="229" y="-662.3" font-family="Times,serif" font-size="14.00">%hc</text>
</g>
<!-- hc&#45;&gt;zp -->
<g id="edge11" class="edge">
<title>hc&#45;&gt;zp</title>
<path fill="none" stroke="black" d="M241.4,-682.58C249.15,-692.81 258.96,-706.71 266,-720 298.07,-780.54 308.57,-796.63 321,-864 330.46,-915.26 297.48,-970.73 275.08,-1001.34"/>
<polygon fill="black" stroke="black" points="272.04,-999.56 268.81,-1009.64 277.62,-1003.77 272.04,-999.56"/>
</g>
<!-- hc&#45;&gt;kb -->
<g id="edge10" class="edge">
<title>hc&#45;&gt;kb</title>
<path fill="none" stroke="black" d="M216.57,-649.46C209.25,-640.31 199.84,-628.55 191.65,-618.31"/>
<polygon fill="black" stroke="black" points="194.37,-616.11 185.39,-610.49 188.91,-620.49 194.37,-616.11"/>
</g>
<!-- kb&#45;&gt;pc -->
<g id="edge83" class="edge">
<title>kb&#45;&gt;pc</title>
<path fill="none" stroke="black" d="M164.19,-576.76C159.65,-568.4 154.01,-558.02 148.9,-548.61"/>
<polygon fill="black" stroke="black" points="151.88,-546.75 144.03,-539.63 145.72,-550.09 151.88,-546.75"/>
</g>
<!-- rd&#45;&gt;lk -->
<g id="edge12" class="edge">
<title>rd&#45;&gt;lk</title>
<path fill="none" stroke="black" d="M243.4,-792.05C241.25,-784.14 238.65,-774.54 236.24,-765.69"/>
<polygon fill="black" stroke="black" points="239.55,-764.52 233.56,-755.79 232.8,-766.36 239.55,-764.52"/>
</g>
<!-- lk&#45;&gt;hc -->
<g id="edge49" class="edge">
<title>lk&#45;&gt;hc</title>
<path fill="none" stroke="black" d="M229,-719.7C229,-711.98 229,-702.71 229,-694.11"/>
<polygon fill="black" stroke="black" points="232.5,-694.1 229,-684.1 225.5,-694.1 232.5,-694.1"/>
</g>
<!-- ml -->
<g id="node18" class="node">
<title>ml</title>
<ellipse fill="none" stroke="black" cx="1760" cy="-954" rx="31.4" ry="18"/>
<text text-anchor="middle" x="1760" y="-950.3" font-family="Times,serif" font-size="14.00">%ml</text>
</g>
<!-- ml&#45;&gt;xt -->
<g id="edge14" class="edge">
<title>ml&#45;&gt;xt</title>
<path fill="none" stroke="black" d="M1752.18,-936.41C1748.28,-928.13 1743.46,-917.92 1739.1,-908.66"/>
<polygon fill="black" stroke="black" points="1742.19,-907.02 1734.76,-899.47 1735.86,-910.01 1742.19,-907.02"/>
</g>
<!-- ml&#45;&gt;pp -->
<g id="edge13" class="edge">
<title>ml&#45;&gt;pp</title>
<path fill="none" stroke="black" d="M1758.61,-935.85C1760.45,-898.57 1773.04,-809.94 1782.54,-765.44"/>
<polygon fill="black" stroke="black" points="1785.97,-766.17 1784.76,-755.64 1779.14,-764.62 1785.97,-766.17"/>
</g>
<!-- pp&#45;&gt;xt -->
<g id="edge98" class="edge">
<title>pp&#45;&gt;xt</title>
<path fill="none" stroke="black" d="M1783.58,-755.46C1772.58,-779.88 1751.83,-825.91 1738.75,-854.94"/>
<polygon fill="black" stroke="black" points="1735.39,-853.88 1734.47,-864.43 1741.77,-856.75 1735.39,-853.88"/>
</g>
<!-- pp&#45;&gt;ml -->
<g id="edge97" class="edge">
<title>pp&#45;&gt;ml</title>
<path fill="none" stroke="black" d="M1792.4,-756.01C1790.59,-793.16 1778.01,-881.76 1768.5,-926.38"/>
<polygon fill="black" stroke="black" points="1765.07,-925.68 1766.28,-936.21 1771.89,-927.23 1765.07,-925.68"/>
</g>
<!-- pp&#45;&gt;nb -->
<g id="edge100" class="edge">
<title>pp&#45;&gt;nb</title>
<path fill="none" stroke="black" d="M1772.1,-723.5C1757.33,-712.95 1736.58,-698.13 1720.05,-686.32"/>
<polygon fill="black" stroke="black" points="1722.01,-683.42 1711.84,-680.46 1717.94,-689.12 1722.01,-683.42"/>
</g>
<!-- ln -->
<g id="node45" class="node">
<title>ln</title>
<ellipse fill="none" stroke="black" cx="1537" cy="-666" rx="27.9" ry="18"/>
<text text-anchor="middle" x="1537" y="-662.3" font-family="Times,serif" font-size="14.00">&amp;ln</text>
</g>
<!-- pp&#45;&gt;ln -->
<g id="edge96" class="edge">
<title>pp&#45;&gt;ln</title>
<path fill="none" stroke="black" d="M1763.82,-729.51C1717.48,-716.74 1623.26,-690.77 1572.04,-676.66"/>
<polygon fill="black" stroke="black" points="1572.67,-673.2 1562.1,-673.92 1570.81,-679.95 1572.67,-673.2"/>
</g>
<!-- bq -->
<g id="node50" class="node">
<title>bq</title>
<ellipse fill="none" stroke="black" cx="1807" cy="-450" rx="31.4" ry="18"/>
<text text-anchor="middle" x="1807" y="-446.3" font-family="Times,serif" font-size="14.00">%bq</text>
</g>
<!-- pp&#45;&gt;bq -->
<g id="edge99" class="edge">
<title>pp&#45;&gt;bq</title>
<path fill="none" stroke="black" d="M1793.07,-719.83C1794.29,-709.46 1795.82,-695.98 1797,-684 1804.84,-604.21 1810.51,-584.16 1809,-504 1808.84,-495.68 1808.55,-486.63 1808.23,-478.4"/>
<polygon fill="black" stroke="black" points="1811.72,-478.03 1807.81,-468.18 1804.72,-478.32 1811.72,-478.03"/>
</g>
<!-- sq -->
<g id="node20" class="node">
<title>sq</title>
<ellipse fill="none" stroke="black" cx="706" cy="-234" rx="30.59" ry="18"/>
<text text-anchor="middle" x="706" y="-230.3" font-family="Times,serif" font-size="14.00">%sq</text>
</g>
<!-- sq&#45;&gt;sj -->
<g id="edge16" class="edge">
<title>sq&#45;&gt;sj</title>
<path fill="none" stroke="black" d="M690.96,-250.1C668.29,-274.53 628,-325.25 628,-377 628,-595 628,-595 628,-595 628,-649.85 680.36,-695.58 714.11,-719.35"/>
<polygon fill="black" stroke="black" points="712.43,-722.44 722.66,-725.19 716.38,-716.66 712.43,-722.44"/>
</g>
<!-- kl -->
<g id="node21" class="node">
<title>kl</title>
<ellipse fill="none" stroke="black" cx="706" cy="-162" rx="27.9" ry="18"/>
<text text-anchor="middle" x="706" y="-158.3" font-family="Times,serif" font-size="14.00">%kl</text>
</g>
<!-- sq&#45;&gt;kl -->
<g id="edge15" class="edge">
<title>sq&#45;&gt;kl</title>
<path fill="none" stroke="black" d="M706,-215.7C706,-207.98 706,-198.71 706,-190.11"/>
<polygon fill="black" stroke="black" points="709.5,-190.1 706,-180.1 702.5,-190.1 709.5,-190.1"/>
</g>
<!-- kl&#45;&gt;sj -->
<g id="edge21" class="edge">
<title>kl&#45;&gt;sj</title>
<path fill="none" stroke="black" d="M733.29,-166.79C794.21,-176.93 936,-210.68 936,-305 936,-595 936,-595 936,-595 936,-635.45 944.38,-654.23 917,-684 881.59,-722.5 819.27,-733.4 779.34,-736.27"/>
<polygon fill="black" stroke="black" points="778.99,-732.79 769.21,-736.87 779.4,-739.78 778.99,-732.79"/>
</g>
<!-- mb -->
<g id="node26" class="node">
<title>mb</title>
<ellipse fill="none" stroke="black" cx="614" cy="-90" rx="34.39" ry="18"/>
<text text-anchor="middle" x="614" y="-86.3" font-family="Times,serif" font-size="14.00">%mb</text>
</g>
<!-- kl&#45;&gt;mb -->
<g id="edge20" class="edge">
<title>kl&#45;&gt;mb</title>
<path fill="none" stroke="black" d="M688.7,-147.83C675.26,-137.61 656.38,-123.24 640.96,-111.51"/>
<polygon fill="black" stroke="black" points="642.89,-108.58 632.81,-105.31 638.65,-114.15 642.89,-108.58"/>
</g>
<!-- jg -->
<g id="node22" class="node">
<title>jg</title>
<ellipse fill="none" stroke="black" cx="1287" cy="-594" rx="28.7" ry="18"/>
<text text-anchor="middle" x="1287" y="-590.3" font-family="Times,serif" font-size="14.00">%jg</text>
</g>
<!-- jg&#45;&gt;rg -->
<g id="edge18" class="edge">
<title>jg&#45;&gt;rg</title>
<path fill="none" stroke="black" d="M1278.9,-611.74C1274.42,-621.95 1269.29,-635.42 1267,-648 1253.35,-722.84 1279.47,-811.65 1294.87,-854.82"/>
<polygon fill="black" stroke="black" points="1291.61,-856.11 1298.34,-864.29 1298.18,-853.7 1291.61,-856.11"/>
</g>
<!-- fl -->
<g id="node23" class="node">
<title>fl</title>
<ellipse fill="none" stroke="black" cx="1287" cy="-522" rx="27" ry="18"/>
<text text-anchor="middle" x="1287" y="-518.3" font-family="Times,serif" font-size="14.00">%fl</text>
</g>
<!-- jg&#45;&gt;fl -->
<g id="edge17" class="edge">
<title>jg&#45;&gt;fl</title>
<path fill="none" stroke="black" d="M1287,-575.7C1287,-567.98 1287,-558.71 1287,-550.11"/>
<polygon fill="black" stroke="black" points="1290.5,-550.1 1287,-540.1 1283.5,-550.1 1290.5,-550.1"/>
</g>
<!-- fl&#45;&gt;nf -->
<g id="edge41" class="edge">
<title>fl&#45;&gt;nf</title>
<path fill="none" stroke="black" d="M1304.61,-508.16C1319.17,-497.54 1340.08,-482.29 1356.64,-470.22"/>
<polygon fill="black" stroke="black" points="1358.83,-472.95 1364.85,-464.23 1354.71,-467.3 1358.83,-472.95"/>
</g>
<!-- fl&#45;&gt;rg -->
<g id="edge42" class="edge">
<title>fl&#45;&gt;rg</title>
<path fill="none" stroke="black" d="M1272.88,-537.34C1250.65,-561.51 1210,-612.84 1210,-665 1210,-739 1210,-739 1210,-739 1210,-789.21 1251.54,-835.11 1279.69,-860.44"/>
<polygon fill="black" stroke="black" points="1277.74,-863.39 1287.58,-867.33 1282.34,-858.12 1277.74,-863.39"/>
</g>
<!-- df -->
<g id="node25" class="node">
<title>df</title>
<ellipse fill="none" stroke="black" cx="1113" cy="-594" rx="28.7" ry="18"/>
<text text-anchor="middle" x="1113" y="-590.3" font-family="Times,serif" font-size="14.00">&amp;df</text>
</g>
<!-- xl&#45;&gt;df -->
<g id="edge19" class="edge">
<title>xl&#45;&gt;df</title>
<path fill="none" stroke="black" d="M743.71,-939.73C791.15,-901.79 929.99,-788.83 1035,-684 1056.31,-662.73 1078.78,-636.64 1094.11,-618.23"/>
<polygon fill="black" stroke="black" points="1096.94,-620.29 1100.61,-610.35 1091.54,-615.83 1096.94,-620.29"/>
</g>
<!-- rx -->
<g id="node55" class="node">
<title>rx</title>
<ellipse fill="none" stroke="black" cx="1113" cy="-522" rx="27" ry="18"/>
<text text-anchor="middle" x="1113" y="-518.3" font-family="Times,serif" font-size="14.00">rx</text>
</g>
<!-- df&#45;&gt;rx -->
<g id="edge77" class="edge">
<title>df&#45;&gt;rx</title>
<path fill="none" stroke="black" d="M1113,-575.7C1113,-567.98 1113,-558.71 1113,-550.11"/>
<polygon fill="black" stroke="black" points="1116.5,-550.1 1113,-540.1 1109.5,-550.1 1116.5,-550.1"/>
</g>
<!-- mb&#45;&gt;sj -->
<g id="edge87" class="edge">
<title>mb&#45;&gt;sj</title>
<path fill="none" stroke="black" d="M609.26,-107.89C602.26,-134.34 590,-187.25 590,-233 590,-595 590,-595 590,-595 590,-640.37 607.4,-652.45 640,-684 659.52,-702.9 687.13,-716.68 708.7,-725.45"/>
<polygon fill="black" stroke="black" points="707.55,-728.76 718.14,-729.13 710.09,-722.24 707.55,-728.76"/>
</g>
<!-- nh -->
<g id="node44" class="node">
<title>nh</title>
<ellipse fill="none" stroke="black" cx="552" cy="-18" rx="31.4" ry="18"/>
<text text-anchor="middle" x="552" y="-14.3" font-family="Times,serif" font-size="14.00">%nh</text>
</g>
<!-- mb&#45;&gt;nh -->
<g id="edge88" class="edge">
<title>mb&#45;&gt;nh</title>
<path fill="none" stroke="black" d="M600.24,-73.46C592.05,-64.22 581.51,-52.32 572.37,-42"/>
<polygon fill="black" stroke="black" points="574.97,-39.66 565.72,-34.49 569.73,-44.3 574.97,-39.66"/>
</g>
<!-- nd -->
<g id="node27" class="node">
<title>nd</title>
<ellipse fill="none" stroke="black" cx="1307" cy="-666" rx="31.4" ry="18"/>
<text text-anchor="middle" x="1307" y="-662.3" font-family="Times,serif" font-size="14.00">%nd</text>
</g>
<!-- nd&#45;&gt;rg -->
<g id="edge22" class="edge">
<title>nd&#45;&gt;rg</title>
<path fill="none" stroke="black" d="M1306.19,-684.18C1305.74,-694.55 1305.23,-708.03 1305,-720 1304.12,-766.75 1304.39,-821.14 1304.68,-853.23"/>
<polygon fill="black" stroke="black" points="1301.19,-853.64 1304.79,-863.61 1308.19,-853.57 1301.19,-853.64"/>
</g>
<!-- nd&#45;&gt;jg -->
<g id="edge23" class="edge">
<title>nd&#45;&gt;jg</title>
<path fill="none" stroke="black" d="M1302.16,-648.05C1299.9,-640.14 1297.15,-630.54 1294.63,-621.69"/>
<polygon fill="black" stroke="black" points="1297.91,-620.44 1291.8,-611.79 1291.18,-622.37 1297.91,-620.44"/>
</g>
<!-- cs&#45;&gt;rg -->
<g id="edge67" class="edge">
<title>cs&#45;&gt;rg</title>
<path fill="none" stroke="black" d="M1299.12,-936.05C1298.29,-928.23 1298.05,-918.75 1298.41,-909.98"/>
<polygon fill="black" stroke="black" points="1301.92,-910.01 1299.14,-899.79 1294.93,-909.51 1301.92,-910.01"/>
</g>
<!-- cs&#45;&gt;zb -->
<g id="edge66" class="edge">
<title>cs&#45;&gt;zb</title>
<path fill="none" stroke="black" d="M1325.18,-940.65C1366.3,-915.48 1459.91,-858.18 1507.72,-828.92"/>
<polygon fill="black" stroke="black" points="1509.66,-831.84 1516.37,-823.63 1506.01,-825.86 1509.66,-831.84"/>
</g>
<!-- zb&#45;&gt;vz -->
<g id="edge71" class="edge">
<title>zb&#45;&gt;vz</title>
<path fill="none" stroke="black" d="M1511.77,-799.85C1477.72,-787.5 1416.93,-765.45 1378.63,-751.56"/>
<polygon fill="black" stroke="black" points="1379.53,-748.16 1368.93,-748.04 1377.14,-754.74 1379.53,-748.16"/>
</g>
<!-- kk -->
<g id="node35" class="node">
<title>kk</title>
<ellipse fill="none" stroke="black" cx="1448" cy="-234" rx="30.59" ry="18"/>
<text text-anchor="middle" x="1448" y="-230.3" font-family="Times,serif" font-size="14.00">%kk</text>
</g>
<!-- cp&#45;&gt;kk -->
<g id="edge50" class="edge">
<title>cp&#45;&gt;kk</title>
<path fill="none" stroke="black" d="M1448,-287.7C1448,-279.98 1448,-270.71 1448,-262.11"/>
<polygon fill="black" stroke="black" points="1451.5,-262.1 1448,-252.1 1444.5,-262.1 1451.5,-262.1"/>
</g>
<!-- vz&#45;&gt;nd -->
<g id="edge56" class="edge">
<title>vz&#45;&gt;nd</title>
<path fill="none" stroke="black" d="M1335.23,-720.41C1330.81,-712.04 1325.35,-701.71 1320.41,-692.37"/>
<polygon fill="black" stroke="black" points="1323.47,-690.68 1315.71,-683.47 1317.28,-693.95 1323.47,-690.68"/>
</g>
<!-- gp&#45;&gt;df -->
<g id="edge59" class="edge">
<title>gp&#45;&gt;df</title>
<path fill="none" stroke="black" d="M1113,-719.87C1113,-695.67 1113,-651.21 1113,-622.39"/>
<polygon fill="black" stroke="black" points="1116.5,-622.19 1113,-612.19 1109.5,-622.19 1116.5,-622.19"/>
</g>
<!-- mf -->
<g id="node33" class="node">
<title>mf</title>
<ellipse fill="none" stroke="black" cx="95" cy="-162" rx="31.7" ry="18"/>
<text text-anchor="middle" x="95" y="-158.3" font-family="Times,serif" font-size="14.00">%mf</text>
</g>
<!-- mf&#45;&gt;zp -->
<g id="edge29" class="edge">
<title>mf&#45;&gt;zp</title>
<path fill="none" stroke="black" d="M77.13,-177.05C49.61,-200.41 0,-250.13 0,-305 0,-883 0,-883 0,-883 0,-927.94 12.57,-944.34 48,-972 97.05,-1010.29 170.62,-1021.18 215.84,-1024.12"/>
<polygon fill="black" stroke="black" points="215.69,-1027.62 225.87,-1024.67 216.08,-1020.63 215.69,-1027.62"/>
</g>
<!-- fr&#45;&gt;zp -->
<g id="edge106" class="edge">
<title>fr&#45;&gt;zp</title>
<path fill="none" stroke="black" d="M100.52,-393.74C78.21,-418.07 38,-469.12 38,-521 38,-883 38,-883 38,-883 38,-928.15 52.05,-943.41 87,-972 124.42,-1002.61 179.62,-1015.61 216.64,-1021.09"/>
<polygon fill="black" stroke="black" points="216.19,-1024.56 226.58,-1022.44 217.14,-1017.63 216.19,-1024.56"/>
</g>
<!-- mr -->
<g id="node59" class="node">
<title>mr</title>
<ellipse fill="none" stroke="black" cx="284" cy="-306" rx="32.49" ry="18"/>
<text text-anchor="middle" x="284" y="-302.3" font-family="Times,serif" font-size="14.00">%mr</text>
</g>
<!-- fr&#45;&gt;mr -->
<g id="edge107" class="edge">
<title>fr&#45;&gt;mr</title>
<path fill="none" stroke="black" d="M137.44,-367.7C166.04,-355.86 215.79,-335.25 249.29,-321.38"/>
<polygon fill="black" stroke="black" points="250.81,-324.54 258.71,-317.48 248.13,-318.07 250.81,-324.54"/>
</g>
<!-- kk&#45;&gt;rg -->
<g id="edge32" class="edge">
<title>kk&#45;&gt;rg</title>
<path fill="none" stroke="black" d="M1472.44,-244.96C1514.48,-263.9 1596,-309.34 1596,-377 1596,-739 1596,-739 1596,-739 1596,-779.45 1605.85,-799.66 1577,-828 1544.58,-859.84 1411.91,-873.55 1344.59,-878.55"/>
<polygon fill="black" stroke="black" points="1344.1,-875.07 1334.37,-879.28 1344.59,-882.06 1344.1,-875.07"/>
</g>
<!-- bj -->
<g id="node36" class="node">
<title>bj</title>
<ellipse fill="none" stroke="black" cx="1172" cy="-162" rx="28.7" ry="18"/>
<text text-anchor="middle" x="1172" y="-158.3" font-family="Times,serif" font-size="14.00">%bj</text>
</g>
<!-- kk&#45;&gt;bj -->
<g id="edge33" class="edge">
<title>kk&#45;&gt;bj</title>
<path fill="none" stroke="black" d="M1420.53,-226.03C1370.34,-213.3 1263.86,-186.3 1207.97,-172.12"/>
<polygon fill="black" stroke="black" points="1208.7,-168.7 1198.15,-169.63 1206.98,-175.48 1208.7,-168.7"/>
</g>
<!-- bj&#45;&gt;rg -->
<g id="edge105" class="edge">
<title>bj&#45;&gt;rg</title>
<path fill="none" stroke="black" d="M1172,-180.05C1172,-206.71 1172,-259.89 1172,-305 1172,-739 1172,-739 1172,-739 1172,-798.26 1234.46,-842.98 1273.77,-865.27"/>
<polygon fill="black" stroke="black" points="1272.29,-868.44 1282.74,-870.19 1275.66,-862.31 1272.29,-868.44"/>
</g>
<!-- lj -->
<g id="node47" class="node">
<title>lj</title>
<ellipse fill="none" stroke="black" cx="1113" cy="-90" rx="27" ry="18"/>
<text text-anchor="middle" x="1113" y="-86.3" font-family="Times,serif" font-size="14.00">%lj</text>
</g>
<!-- bj&#45;&gt;lj -->
<g id="edge104" class="edge">
<title>bj&#45;&gt;lj</title>
<path fill="none" stroke="black" d="M1159.2,-145.81C1151.39,-136.55 1141.25,-124.52 1132.47,-114.09"/>
<polygon fill="black" stroke="black" points="1134.9,-111.55 1125.78,-106.16 1129.55,-116.06 1134.9,-111.55"/>
</g>
<!-- qj -->
<g id="node38" class="node">
<title>qj</title>
<ellipse fill="none" stroke="black" cx="1733" cy="-594" rx="28.7" ry="18"/>
<text text-anchor="middle" x="1733" y="-590.3" font-family="Times,serif" font-size="14.00">%qj</text>
</g>
<!-- nb&#45;&gt;qj -->
<g id="edge34" class="edge">
<title>nb&#45;&gt;qj</title>
<path fill="none" stroke="black" d="M1702.28,-648.76C1707.17,-640.19 1713.29,-629.49 1718.77,-619.9"/>
<polygon fill="black" stroke="black" points="1721.85,-621.57 1723.77,-611.15 1715.77,-618.09 1721.85,-621.57"/>
</g>
<!-- qj&#45;&gt;pp -->
<g id="edge74" class="edge">
<title>qj&#45;&gt;pp</title>
<path fill="none" stroke="black" d="M1739.9,-611.9C1749.93,-636.44 1768.59,-682.15 1780.38,-710.99"/>
<polygon fill="black" stroke="black" points="1777.21,-712.5 1784.23,-720.43 1783.69,-709.85 1777.21,-712.5"/>
</g>
<!-- hd -->
<g id="node49" class="node">
<title>hd</title>
<ellipse fill="none" stroke="black" cx="1769" cy="-522" rx="31.4" ry="18"/>
<text text-anchor="middle" x="1769" y="-518.3" font-family="Times,serif" font-size="14.00">%hd</text>
</g>
<!-- qj&#45;&gt;hd -->
<g id="edge75" class="edge">
<title>qj&#45;&gt;hd</title>
<path fill="none" stroke="black" d="M1741.35,-576.76C1745.65,-568.4 1750.99,-558.02 1755.83,-548.61"/>
<polygon fill="black" stroke="black" points="1758.98,-550.13 1760.45,-539.63 1752.76,-546.93 1758.98,-550.13"/>
</g>
<!-- pr -->
<g id="node39" class="node">
<title>pr</title>
<ellipse fill="none" stroke="black" cx="1950" cy="-90" rx="29.8" ry="18"/>
<text text-anchor="middle" x="1950" y="-86.3" font-family="Times,serif" font-size="14.00">%pr</text>
</g>
<!-- pr&#45;&gt;pp -->
<g id="edge35" class="edge">
<title>pr&#45;&gt;pp</title>
<path fill="none" stroke="black" d="M1955.93,-107.81C1964.67,-134.14 1980,-186.89 1980,-233 1980,-595 1980,-595 1980,-595 1980,-669.96 1883.81,-710.23 1828.67,-727.17"/>
<polygon fill="black" stroke="black" points="1827.49,-723.87 1818.89,-730.06 1829.47,-730.58 1827.49,-723.87"/>
</g>
<!-- vl&#45;&gt;zp -->
<g id="edge58" class="edge">
<title>vl&#45;&gt;zp</title>
<path fill="none" stroke="black" d="M399.09,-966.1C371.78,-978.66 323.99,-999.09 291.13,-1012.29"/>
<polygon fill="black" stroke="black" points="289.45,-1009.19 281.44,-1016.13 292.03,-1015.7 289.45,-1009.19"/>
</g>
<!-- lv -->
<g id="node48" class="node">
<title>lv</title>
<ellipse fill="none" stroke="black" cx="284" cy="-882" rx="27.9" ry="18"/>
<text text-anchor="middle" x="284" y="-878.3" font-family="Times,serif" font-size="14.00">%lv</text>
</g>
<!-- vl&#45;&gt;lv -->
<g id="edge57" class="edge">
<title>vl&#45;&gt;lv</title>
<path fill="none" stroke="black" d="M398.75,-942.06C375.99,-930.35 339.7,-911.67 314.03,-898.46"/>
<polygon fill="black" stroke="black" points="315.59,-895.33 305.1,-893.86 312.39,-901.55 315.59,-895.33"/>
</g>
<!-- tb -->
<g id="node41" class="node">
<title>tb</title>
<ellipse fill="none" stroke="black" cx="1847" cy="-378" rx="29.5" ry="18"/>
<text text-anchor="middle" x="1847" y="-374.3" font-family="Times,serif" font-size="14.00">%tb</text>
</g>
<!-- tb&#45;&gt;pp -->
<g id="edge44" class="edge">
<title>tb&#45;&gt;pp</title>
<path fill="none" stroke="black" d="M1850.75,-395.95C1856.29,-422.48 1866,-475.48 1866,-521 1866,-595 1866,-595 1866,-595 1866,-641.49 1834.18,-687.66 1811.99,-714.21"/>
<polygon fill="black" stroke="black" points="1809.33,-711.93 1805.46,-721.79 1814.64,-716.5 1809.33,-711.93"/>
</g>
<!-- pk -->
<g id="node42" class="node">
<title>pk</title>
<ellipse fill="none" stroke="black" cx="1865" cy="-306" rx="30.59" ry="18"/>
<text text-anchor="middle" x="1865" y="-302.3" font-family="Times,serif" font-size="14.00">%pk</text>
</g>
<!-- tb&#45;&gt;pk -->
<g id="edge43" class="edge">
<title>tb&#45;&gt;pk</title>
<path fill="none" stroke="black" d="M1851.36,-360.05C1853.36,-352.26 1855.79,-342.82 1858.04,-334.08"/>
<polygon fill="black" stroke="black" points="1861.46,-334.83 1860.56,-324.28 1854.68,-333.09 1861.46,-334.83"/>
</g>
<!-- pk&#45;&gt;pp -->
<g id="edge65" class="edge">
<title>pk&#45;&gt;pp</title>
<path fill="none" stroke="black" d="M1872.71,-323.64C1884.07,-349.76 1904,-402.21 1904,-449 1904,-595 1904,-595 1904,-595 1904,-649.08 1853.19,-694.48 1819.71,-718.53"/>
<polygon fill="black" stroke="black" points="1817.41,-715.87 1811.2,-724.45 1821.41,-721.61 1817.41,-715.87"/>
</g>
<!-- fq -->
<g id="node51" class="node">
<title>fq</title>
<ellipse fill="none" stroke="black" cx="1865" cy="-234" rx="28.7" ry="18"/>
<text text-anchor="middle" x="1865" y="-230.3" font-family="Times,serif" font-size="14.00">%fq</text>
</g>
<!-- pk&#45;&gt;fq -->
<g id="edge64" class="edge">
<title>pk&#45;&gt;fq</title>
<path fill="none" stroke="black" d="M1865,-287.7C1865,-279.98 1865,-270.71 1865,-262.11"/>
<polygon fill="black" stroke="black" points="1868.5,-262.1 1865,-252.1 1861.5,-262.1 1868.5,-262.1"/>
</g>
<!-- bh -->
<g id="node43" class="node">
<title>bh</title>
<ellipse fill="none" stroke="black" cx="1921" cy="-162" rx="31.4" ry="18"/>
<text text-anchor="middle" x="1921" y="-158.3" font-family="Times,serif" font-size="14.00">%bh</text>
</g>
<!-- bh&#45;&gt;pp -->
<g id="edge45" class="edge">
<title>bh&#45;&gt;pp</title>
<path fill="none" stroke="black" d="M1925.15,-179.93C1931.27,-206.43 1942,-259.39 1942,-305 1942,-595 1942,-595 1942,-595 1942,-658.7 1869.81,-702.2 1825.26,-722.98"/>
<polygon fill="black" stroke="black" points="1823.61,-719.88 1815.93,-727.19 1826.49,-726.26 1823.61,-719.88"/>
</g>
<!-- bh&#45;&gt;pr -->
<g id="edge46" class="edge">
<title>bh&#45;&gt;pr</title>
<path fill="none" stroke="black" d="M1927.87,-144.41C1931.22,-136.34 1935.32,-126.43 1939.08,-117.35"/>
<polygon fill="black" stroke="black" points="1942.38,-118.53 1942.98,-107.96 1935.91,-115.86 1942.38,-118.53"/>
</g>
<!-- nh&#45;&gt;rq -->
<g id="edge48" class="edge">
<title>nh&#45;&gt;rq</title>
<path fill="none" stroke="black" d="M544.49,-35.66C533.42,-61.8 514,-114.3 514,-161 514,-739 514,-739 514,-739 514,-808.16 597.99,-850.38 647.55,-869.27"/>
<polygon fill="black" stroke="black" points="646.37,-872.57 656.96,-872.74 648.79,-866 646.37,-872.57"/>
</g>
<!-- nh&#45;&gt;sj -->
<g id="edge47" class="edge">
<title>nh&#45;&gt;sj</title>
<path fill="none" stroke="black" d="M552,-36.05C552,-62.71 552,-115.89 552,-161 552,-595 552,-595 552,-595 552,-640.15 566.86,-654.45 601,-684 631.11,-710.07 675.29,-723.88 706.15,-730.79"/>
<polygon fill="black" stroke="black" points="705.56,-734.24 716.06,-732.87 707,-727.39 705.56,-734.24"/>
</g>
<!-- ln&#45;&gt;df -->
<g id="edge51" class="edge">
<title>ln&#45;&gt;df</title>
<path fill="none" stroke="black" d="M1510.16,-660.57C1437.02,-648.49 1234.14,-615 1150.15,-601.13"/>
<polygon fill="black" stroke="black" points="1150.71,-597.68 1140.27,-599.5 1149.57,-604.59 1150.71,-597.68"/>
</g>
<!-- xp&#45;&gt;df -->
<g id="edge52" class="edge">
<title>xp&#45;&gt;df</title>
<path fill="none" stroke="black" d="M1015.82,-652.65C1034.73,-641.43 1062.8,-624.78 1083.91,-612.26"/>
<polygon fill="black" stroke="black" points="1085.96,-615.11 1092.78,-607 1082.39,-609.09 1085.96,-615.11"/>
</g>
<!-- lj&#45;&gt;rg -->
<g id="edge55" class="edge">
<title>lj&#45;&gt;rg</title>
<path fill="none" stroke="black" d="M1101.62,-106.72C1084.48,-132.01 1054,-183.88 1054,-233 1054,-739 1054,-739 1054,-739 1054,-835.2 1195.39,-866.98 1265.93,-876.86"/>
<polygon fill="black" stroke="black" points="1265.84,-880.38 1276.21,-878.21 1266.75,-873.43 1265.84,-880.38"/>
</g>
<!-- lv&#45;&gt;zp -->
<g id="edge72" class="edge">
<title>lv&#45;&gt;zp</title>
<path fill="none" stroke="black" d="M280.61,-900.19C275.81,-924.53 266.99,-969.28 261.31,-998.06"/>
<polygon fill="black" stroke="black" points="257.88,-997.38 259.38,-1007.87 264.75,-998.74 257.88,-997.38"/>
</g>
<!-- lv&#45;&gt;rd -->
<g id="edge73" class="edge">
<title>lv&#45;&gt;rd</title>
<path fill="none" stroke="black" d="M275.65,-864.76C271.35,-856.4 266.01,-846.02 261.17,-836.61"/>
<polygon fill="black" stroke="black" points="264.24,-834.93 256.55,-827.63 258.02,-838.13 264.24,-834.93"/>
</g>
<!-- hd&#45;&gt;pp -->
<g id="edge60" class="edge">
<title>hd&#45;&gt;pp</title>
<path fill="none" stroke="black" d="M1770.77,-540.23C1774.58,-577.32 1783.6,-664.98 1788.19,-709.71"/>
<polygon fill="black" stroke="black" points="1784.73,-710.26 1789.24,-719.85 1791.7,-709.54 1784.73,-710.26"/>
</g>
<!-- hd&#45;&gt;bq -->
<g id="edge61" class="edge">
<title>hd&#45;&gt;bq</title>
<path fill="none" stroke="black" d="M1778.01,-504.41C1782.55,-496.04 1788.16,-485.71 1793.23,-476.37"/>
<polygon fill="black" stroke="black" points="1796.36,-477.93 1798.06,-467.47 1790.21,-474.59 1796.36,-477.93"/>
</g>
<!-- bq&#45;&gt;tb -->
<g id="edge82" class="edge">
<title>bq&#45;&gt;tb</title>
<path fill="none" stroke="black" d="M1816.28,-432.76C1821.17,-424.19 1827.29,-413.49 1832.77,-403.9"/>
<polygon fill="black" stroke="black" points="1835.85,-405.57 1837.77,-395.15 1829.77,-402.09 1835.85,-405.57"/>
</g>
<!-- fq&#45;&gt;pp -->
<g id="edge62" class="edge">
<title>fq&#45;&gt;pp</title>
<path fill="none" stroke="black" d="M1837.14,-238.82C1775.7,-248.97 1634,-282.61 1634,-377 1634,-595 1634,-595 1634,-595 1634,-635.45 1626.72,-653.25 1653,-684 1677.64,-712.83 1719.83,-726.04 1751.09,-732.05"/>
<polygon fill="black" stroke="black" points="1750.77,-735.55 1761.23,-733.83 1751.98,-728.66 1750.77,-735.55"/>
</g>
<!-- fq&#45;&gt;bh -->
<g id="edge63" class="edge">
<title>fq&#45;&gt;bh</title>
<path fill="none" stroke="black" d="M1877.43,-217.46C1884.58,-208.53 1893.71,-197.11 1901.77,-187.04"/>
<polygon fill="black" stroke="black" points="1904.7,-188.97 1908.22,-178.98 1899.24,-184.6 1904.7,-188.97"/>
</g>
<!-- sn&#45;&gt;fd -->
<g id="edge68" class="edge">
<title>sn&#45;&gt;fd</title>
<path fill="none" stroke="black" d="M759.61,-576.05C758.07,-568.35 756.21,-559.03 754.47,-550.36"/>
<polygon fill="black" stroke="black" points="757.85,-549.39 752.46,-540.28 750.98,-550.77 757.85,-549.39"/>
</g>
<!-- fd&#45;&gt;nt -->
<g id="edge76" class="edge">
<title>fd&#45;&gt;nt</title>
<path fill="none" stroke="black" d="M749,-503.7C749,-495.98 749,-486.71 749,-478.11"/>
<polygon fill="black" stroke="black" points="752.5,-478.1 749,-468.1 745.5,-478.1 752.5,-478.1"/>
</g>
<!-- qq&#45;&gt;sq -->
<g id="edge86" class="edge">
<title>qq&#45;&gt;sq</title>
<path fill="none" stroke="black" d="M717.37,-288.05C715.7,-280.26 713.68,-270.82 711.8,-262.08"/>
<polygon fill="black" stroke="black" points="715.22,-261.32 709.7,-252.28 708.37,-262.79 715.22,-261.32"/>
</g>
<!-- roadcaster -->
<g id="node56" class="node">
<title>roadcaster</title>
<ellipse fill="none" stroke="black" cx="1135" cy="-1026" rx="66.09" ry="18"/>
<text text-anchor="middle" x="1135" y="-1022.3" font-family="Times,serif" font-size="14.00">broadcaster</text>
</g>
<!-- roadcaster&#45;&gt;ml -->
<g id="edge81" class="edge">
<title>roadcaster&#45;&gt;ml</title>
<path fill="none" stroke="black" d="M1194.93,-1018.29C1321.33,-1004.13 1612.42,-971.53 1719.51,-959.54"/>
<polygon fill="black" stroke="black" points="1720.03,-963 1729.58,-958.41 1719.25,-956.04 1720.03,-963"/>
</g>
<!-- roadcaster&#45;&gt;cs -->
<g id="edge79" class="edge">
<title>roadcaster&#45;&gt;cs</title>
<path fill="none" stroke="black" d="M1169.81,-1010.67C1199.75,-998.34 1242.62,-980.69 1272.01,-968.58"/>
<polygon fill="black" stroke="black" points="1273.51,-971.75 1281.43,-964.71 1270.85,-965.28 1273.51,-971.75"/>
</g>
<!-- roadcaster&#45;&gt;vl -->
<g id="edge78" class="edge">
<title>roadcaster&#45;&gt;vl</title>
<path fill="none" stroke="black" d="M1073.73,-1019C929.91,-1004.92 574.06,-970.08 457.58,-958.68"/>
<polygon fill="black" stroke="black" points="457.67,-955.17 447.38,-957.68 456.99,-962.14 457.67,-955.17"/>
</g>
<!-- roadcaster&#45;&gt;cn -->
<g id="edge80" class="edge">
<title>roadcaster&#45;&gt;cn</title>
<path fill="none" stroke="black" d="M1084.91,-1014.11C1023.37,-997.45 927,-959.19 927,-883 927,-883 927,-883 927,-809 927,-766.21 906.56,-720.08 891.81,-692.38"/>
<polygon fill="black" stroke="black" points="894.76,-690.47 886.88,-683.39 888.62,-693.84 894.76,-690.47"/>
</g>
<!-- cn&#45;&gt;sj -->
<g id="edge85" class="edge">
<title>cn&#45;&gt;sj</title>
<path fill="none" stroke="black" d="M857.38,-679.96C835.28,-692.35 799.43,-710.96 773.46,-723.52"/>
<polygon fill="black" stroke="black" points="771.9,-720.38 764.38,-727.85 774.91,-726.7 771.9,-720.38"/>
</g>
<!-- cn&#45;&gt;sn -->
<g id="edge84" class="edge">
<title>cn&#45;&gt;sn</title>
<path fill="none" stroke="black" d="M856.62,-652.49C838.74,-641.5 812.51,-625.4 792.37,-613.03"/>
<polygon fill="black" stroke="black" points="793.94,-609.89 783.59,-607.64 790.28,-615.86 793.94,-609.89"/>
</g>
<!-- jd -->
<g id="node58" class="node">
<title>jd</title>
<ellipse fill="none" stroke="black" cx="284" cy="-234" rx="28.7" ry="18"/>
<text text-anchor="middle" x="284" y="-230.3" font-family="Times,serif" font-size="14.00">%jd</text>
</g>
<!-- jd&#45;&gt;zp -->
<g id="edge89" class="edge">
<title>jd&#45;&gt;zp</title>
<path fill="none" stroke="black" d="M310.29,-241.24C362.88,-255.47 476,-295.53 476,-377 476,-883 476,-883 476,-883 476,-923.45 484.91,-942.73 457,-972 434.92,-995.15 347.03,-1011.66 295.06,-1019.62"/>
<polygon fill="black" stroke="black" points="294.24,-1016.2 284.87,-1021.14 295.27,-1023.12 294.24,-1016.2"/>
</g>
<!-- jd&#45;&gt;mf -->
<g id="edge90" class="edge">
<title>jd&#45;&gt;mf</title>
<path fill="none" stroke="black" d="M260.06,-224.13C227.33,-212.01 168.35,-190.17 130.47,-176.14"/>
<polygon fill="black" stroke="black" points="131.45,-172.77 120.86,-172.58 129.02,-179.33 131.45,-172.77"/>
</g>
<!-- mr&#45;&gt;zp -->
<g id="edge108" class="edge">
<title>mr&#45;&gt;zp</title>
<path fill="none" stroke="black" d="M302.12,-321.47C329.44,-345.04 378,-394.6 378,-449 378,-811 378,-811 378,-811 378,-887.36 361.75,-909.41 318,-972 308.86,-985.07 295.76,-996.91 283.95,-1006.06"/>
<polygon fill="black" stroke="black" points="281.59,-1003.45 275.66,-1012.22 285.77,-1009.06 281.59,-1003.45"/>
</g>
<!-- mr&#45;&gt;jd -->
<g id="edge109" class="edge">
<title>mr&#45;&gt;jd</title>
<path fill="none" stroke="black" d="M284,-287.7C284,-279.98 284,-270.71 284,-262.11"/>
<polygon fill="black" stroke="black" points="287.5,-262.1 284,-252.1 280.5,-262.1 287.5,-262.1"/>
</g>
</g>
</svg>
