<?xml version="1.0" encoding="UTF-8" standalone="no"?>
<!DOCTYPE svg PUBLIC "-//W3C//DTD SVG 1.1//EN"
 "http://www.w3.org/Graphics/SVG/1.1/DTD/svg11.dtd">
<!-- Generated by graphviz version 2.43.0 (0)
 -->
<!-- Title: AOC Pages: 1 -->
<svg width="573pt" height="787pt"
 viewBox="0.00 0.00 572.88 786.77" xmlns="http://www.w3.org/2000/svg" xmlns:xlink="http://www.w3.org/1999/xlink">
<g id="graph0" class="graph" transform="scale(1 1) rotate(0) translate(4 782.77)">
<title>AOC</title>
<polygon fill="white" stroke="transparent" points="-4,4 -4,-782.77 568.88,-782.77 568.88,4 -4,4"/>
<!-- n133_127 -->
<g id="node1" class="node">
<title>n133_127</title>
<ellipse fill="none" stroke="black" cx="326.82" cy="-682.73" rx="48.99" ry="18"/>
<text text-anchor="middle" x="326.82" y="-679.03" font-family="Times,serif" font-size="14.00">133,127</text>
</g>
<!-- n101_129 -->
<g id="node2" class="node">
<title>n101_129</title>
<ellipse fill="none" stroke="black" cx="380.14" cy="-616.63" rx="48.99" ry="18"/>
<text text-anchor="middle" x="380.14" y="-612.93" font-family="Times,serif" font-size="14.00">101,129</text>
</g>
<!-- n133_127&#45;&#45;n101_129 -->
<g id="edge1" class="edge">
<title>n133_127&#45;&#45;n101_129</title>
<path fill="none" stroke="black" d="M340.83,-665.36C348.6,-655.72 358.25,-643.77 366.04,-634.11"/>
<text text-anchor="middle" x="339.43" y="-653.54" font-family="Times,serif" font-size="14.00">286</text>
</g>
<!-- n127_103 -->
<g id="node3" class="node">
<title>n127_103</title>
<ellipse fill="none" stroke="black" cx="256.81" cy="-634.72" rx="48.99" ry="18"/>
<text text-anchor="middle" x="256.81" y="-631.02" font-family="Times,serif" font-size="14.00">127,103</text>
</g>
<!-- n133_127&#45;&#45;n127_103 -->
<g id="edge2" class="edge">
<title>n133_127&#45;&#45;n127_103</title>
<path fill="none" stroke="black" d="M303.51,-666.74C296.03,-661.62 287.75,-655.94 280.26,-650.8"/>
<text text-anchor="middle" x="277.88" y="-662.57" font-family="Times,serif" font-size="14.00">170</text>
</g>
<!-- n125_89 -->
<g id="node14" class="node">
<title>n125_89</title>
<ellipse fill="none" stroke="black" cx="186.99" cy="-582.92" rx="42.79" ry="18"/>
<text text-anchor="middle" x="186.99" y="-579.22" font-family="Times,serif" font-size="14.00">125,89</text>
</g>
<!-- n127_103&#45;&#45;n125_89 -->
<g id="edge16" class="edge">
<title>n127_103&#45;&#45;n125_89</title>
<path fill="none" stroke="black" d="M234.72,-618.33C226.25,-612.05 216.61,-604.9 208.22,-598.68"/>
<text text-anchor="middle" x="235.47" y="-597.3" font-family="Times,serif" font-size="14.00">112</text>
</g>
<!-- n99_99 -->
<g id="node4" class="node">
<title>n99_99</title>
<ellipse fill="none" stroke="black" cx="310.36" cy="-569.93" rx="37.09" ry="18"/>
<text text-anchor="middle" x="310.36" y="-566.23" font-family="Times,serif" font-size="14.00">99,99</text>
</g>
<!-- n99_99&#45;&#45;n101_129 -->
<g id="edge6" class="edge">
<title>n99_99&#45;&#45;n101_129</title>
<path fill="none" stroke="black" d="M332.44,-584.71C340.1,-589.84 348.73,-595.61 356.51,-600.82"/>
<text text-anchor="middle" x="358.48" y="-581.57" font-family="Times,serif" font-size="14.00">180</text>
</g>
<!-- n99_99&#45;&#45;n127_103 -->
<g id="edge4" class="edge">
<title>n99_99&#45;&#45;n127_103</title>
<path fill="none" stroke="black" d="M296.29,-586.96C288.6,-596.25 279.1,-607.75 271.34,-617.14"/>
<text text-anchor="middle" x="269.82" y="-590.85" font-family="Times,serif" font-size="14.00">184</text>
</g>
<!-- n79_101 -->
<g id="node5" class="node">
<title>n79_101</title>
<ellipse fill="none" stroke="black" cx="361.76" cy="-501.36" rx="42.79" ry="18"/>
<text text-anchor="middle" x="361.76" y="-497.66" font-family="Times,serif" font-size="14.00">79,101</text>
</g>
<!-- n99_99&#45;&#45;n79_101 -->
<g id="edge3" class="edge">
<title>n99_99&#45;&#45;n79_101</title>
<path fill="none" stroke="black" d="M323.06,-552.98C330.91,-542.51 340.95,-529.11 348.84,-518.59"/>
<text text-anchor="middle" x="321.95" y="-539.59" font-family="Times,serif" font-size="14.00">150</text>
</g>
<!-- n101_87 -->
<g id="node6" class="node">
<title>n101_87</title>
<ellipse fill="none" stroke="black" cx="240.99" cy="-519.61" rx="42.79" ry="18"/>
<text text-anchor="middle" x="240.99" y="-515.91" font-family="Times,serif" font-size="14.00">101,87</text>
</g>
<!-- n99_99&#45;&#45;n101_87 -->
<g id="edge5" class="edge">
<title>n99_99&#45;&#45;n101_87</title>
<path fill="none" stroke="black" d="M289.55,-554.83C281.09,-548.7 271.31,-541.6 262.75,-535.39"/>
<text text-anchor="middle" x="266.65" y="-548.91" font-family="Times,serif" font-size="14.00">50</text>
</g>
<!-- n67_101 -->
<g id="node35" class="node">
<title>n67_101</title>
<ellipse fill="none" stroke="black" cx="410.95" cy="-431.66" rx="42.79" ry="18"/>
<text text-anchor="middle" x="410.95" y="-427.96" font-family="Times,serif" font-size="14.00">67,101</text>
</g>
<!-- n79_101&#45;&#45;n67_101 -->
<g id="edge57" class="edge">
<title>n79_101&#45;&#45;n67_101</title>
<path fill="none" stroke="black" d="M374.17,-483.77C381.68,-473.13 391.23,-459.6 398.71,-449"/>
<text text-anchor="middle" x="376.94" y="-470.19" font-family="Times,serif" font-size="14.00">32</text>
</g>
<!-- n77_125 -->
<g id="node36" class="node">
<title>n77_125</title>
<ellipse fill="none" stroke="black" cx="431.61" cy="-546.24" rx="42.79" ry="18"/>
<text text-anchor="middle" x="431.61" y="-542.54" font-family="Times,serif" font-size="14.00">77,125</text>
</g>
<!-- n79_101&#45;&#45;n77_125 -->
<g id="edge58" class="edge">
<title>n79_101&#45;&#45;n77_125</title>
<path fill="none" stroke="black" d="M385.41,-516.55C392.69,-521.23 400.71,-526.38 407.99,-531.06"/>
<text text-anchor="middle" x="382.7" y="-527.61" font-family="Times,serif" font-size="14.00">134</text>
</g>
<!-- n43_129 -->
<g id="node7" class="node">
<title>n43_129</title>
<ellipse fill="none" stroke="black" cx="521.98" cy="-393.24" rx="42.79" ry="18"/>
<text text-anchor="middle" x="521.98" y="-389.54" font-family="Times,serif" font-size="14.00">43,129</text>
</g>
<!-- n11_103 -->
<g id="node8" class="node">
<title>n11_103</title>
<ellipse fill="none" stroke="black" cx="509.66" cy="-312.55" rx="42.79" ry="18"/>
<text text-anchor="middle" x="509.66" y="-308.85" font-family="Times,serif" font-size="14.00">11,103</text>
</g>
<!-- n43_129&#45;&#45;n11_103 -->
<g id="edge7" class="edge">
<title>n43_129&#45;&#45;n11_103</title>
<path fill="none" stroke="black" d="M519.19,-374.93C517.17,-361.73 514.46,-343.98 512.45,-330.79"/>
<text text-anchor="middle" x="529.82" y="-356.66" font-family="Times,serif" font-size="14.00">602</text>
</g>
<!-- n43_105 -->
<g id="node9" class="node">
<title>n43_105</title>
<ellipse fill="none" stroke="black" cx="457.43" cy="-361.79" rx="42.79" ry="18"/>
<text text-anchor="middle" x="457.43" y="-358.09" font-family="Times,serif" font-size="14.00">43,105</text>
</g>
<!-- n43_129&#45;&#45;n43_105 -->
<g id="edge8" class="edge">
<title>n43_129&#45;&#45;n43_105</title>
<path fill="none" stroke="black" d="M493.86,-379.54C491.14,-378.21 488.38,-376.87 485.66,-375.55"/>
<text text-anchor="middle" x="503.76" y="-366.34" font-family="Times,serif" font-size="14.00">136</text>
</g>
<!-- n43_105&#45;&#45;n11_103 -->
<g id="edge59" class="edge">
<title>n43_105&#45;&#45;n11_103</title>
<path fill="none" stroke="black" d="M475.11,-345.12C480.56,-339.99 486.55,-334.34 492,-329.2"/>
<text text-anchor="middle" x="469.55" y="-325.96" font-family="Times,serif" font-size="14.00">198</text>
</g>
<!-- n35_79 -->
<g id="node16" class="node">
<title>n35_79</title>
<ellipse fill="none" stroke="black" cx="392.15" cy="-309.08" rx="37.09" ry="18"/>
<text text-anchor="middle" x="392.15" y="-305.38" font-family="Times,serif" font-size="14.00">35,79</text>
</g>
<!-- n43_105&#45;&#45;n35_79 -->
<g id="edge60" class="edge">
<title>n43_105&#45;&#45;n35_79</title>
<path fill="none" stroke="black" d="M437.49,-345.69C429.24,-339.03 419.71,-331.33 411.52,-324.72"/>
<text text-anchor="middle" x="438.5" y="-324.01" font-family="Times,serif" font-size="14.00">230</text>
</g>
<!-- n99_63 -->
<g id="node10" class="node">
<title>n99_63</title>
<ellipse fill="none" stroke="black" cx="173.18" cy="-467.92" rx="37.09" ry="18"/>
<text text-anchor="middle" x="173.18" y="-464.22" font-family="Times,serif" font-size="14.00">99,63</text>
</g>
<!-- n99_63&#45;&#45;n101_87 -->
<g id="edge12" class="edge">
<title>n99_63&#45;&#45;n101_87</title>
<path fill="none" stroke="black" d="M193.16,-483.15C201.6,-489.58 211.43,-497.07 219.98,-503.59"/>
<text text-anchor="middle" x="216.07" y="-482.17" font-family="Times,serif" font-size="14.00">82</text>
</g>
<!-- n75_63 -->
<g id="node11" class="node">
<title>n75_63</title>
<ellipse fill="none" stroke="black" cx="223.24" cy="-397.74" rx="37.09" ry="18"/>
<text text-anchor="middle" x="223.24" y="-394.04" font-family="Times,serif" font-size="14.00">75,63</text>
</g>
<!-- n99_63&#45;&#45;n75_63 -->
<g id="edge9" class="edge">
<title>n99_63&#45;&#45;n75_63</title>
<path fill="none" stroke="black" d="M185.55,-450.57C193.31,-439.69 203.27,-425.73 211,-414.89"/>
<text text-anchor="middle" x="184.28" y="-436.53" font-family="Times,serif" font-size="14.00">148</text>
</g>
<!-- n133_59 -->
<g id="node12" class="node">
<title>n133_59</title>
<ellipse fill="none" stroke="black" cx="118.58" cy="-527.17" rx="42.79" ry="18"/>
<text text-anchor="middle" x="118.58" y="-523.47" font-family="Times,serif" font-size="14.00">133,59</text>
</g>
<!-- n99_63&#45;&#45;n133_59 -->
<g id="edge10" class="edge">
<title>n99_63&#45;&#45;n133_59</title>
<path fill="none" stroke="black" d="M157.97,-484.42C150.52,-492.51 141.57,-502.22 134.09,-510.34"/>
<text text-anchor="middle" x="132.03" y="-486.18" font-family="Times,serif" font-size="14.00">278</text>
</g>
<!-- n101_37 -->
<g id="node13" class="node">
<title>n101_37</title>
<ellipse fill="none" stroke="black" cx="107.76" cy="-415.42" rx="42.79" ry="18"/>
<text text-anchor="middle" x="107.76" y="-411.72" font-family="Times,serif" font-size="14.00">101,37</text>
</g>
<!-- n99_63&#45;&#45;n101_37 -->
<g id="edge11" class="edge">
<title>n99_63&#45;&#45;n101_37</title>
<path fill="none" stroke="black" d="M153.91,-452.45C145.76,-445.92 136.28,-438.31 128.03,-431.69"/>
<text text-anchor="middle" x="131.47" y="-445.87" font-family="Times,serif" font-size="14.00">96</text>
</g>
<!-- n55_59 -->
<g id="node19" class="node">
<title>n55_59</title>
<ellipse fill="none" stroke="black" cx="273.38" cy="-327.25" rx="37.09" ry="18"/>
<text text-anchor="middle" x="273.38" y="-323.55" font-family="Times,serif" font-size="14.00">55,59</text>
</g>
<!-- n75_63&#45;&#45;n55_59 -->
<g id="edge43" class="edge">
<title>n75_63&#45;&#45;n55_59</title>
<path fill="none" stroke="black" d="M235.38,-380.68C243.14,-369.76 253.19,-355.63 261.01,-344.65"/>
<text text-anchor="middle" x="234.19" y="-366.46" font-family="Times,serif" font-size="14.00">116</text>
</g>
<!-- n133_59&#45;&#45;n125_89 -->
<g id="edge15" class="edge">
<title>n133_59&#45;&#45;n125_89</title>
<path fill="none" stroke="black" d="M138.37,-543.3C147.37,-550.63 157.99,-559.29 167.01,-566.64"/>
<text text-anchor="middle" x="138.69" y="-558.77" font-family="Times,serif" font-size="14.00">234</text>
</g>
<!-- n127_39 -->
<g id="node15" class="node">
<title>n127_39</title>
<ellipse fill="none" stroke="black" cx="55.15" cy="-464.52" rx="42.79" ry="18"/>
<text text-anchor="middle" x="55.15" y="-460.82" font-family="Times,serif" font-size="14.00">127,39</text>
</g>
<!-- n133_59&#45;&#45;n127_39 -->
<g id="edge14" class="edge">
<title>n133_59&#45;&#45;n127_39</title>
<path fill="none" stroke="black" d="M101.58,-510.38C92.48,-501.39 81.3,-490.35 72.2,-481.36"/>
<text text-anchor="middle" x="72.89" y="-499.67" font-family="Times,serif" font-size="14.00">110</text>
</g>
<!-- n125_89&#45;&#45;n101_87 -->
<g id="edge13" class="edge">
<title>n125_89&#45;&#45;n101_87</title>
<path fill="none" stroke="black" d="M201.47,-565.96C209.21,-556.87 218.73,-545.71 226.48,-536.62"/>
<text text-anchor="middle" x="199.97" y="-540.09" font-family="Times,serif" font-size="14.00">166</text>
</g>
<!-- n127_39&#45;&#45;n101_37 -->
<g id="edge28" class="edge">
<title>n127_39&#45;&#45;n101_37</title>
<path fill="none" stroke="black" d="M72.96,-447.9C78.45,-442.78 84.48,-437.14 89.97,-432.03"/>
<text text-anchor="middle" x="95.46" y="-443.76" font-family="Times,serif" font-size="14.00">156</text>
</g>
<!-- n111_11 -->
<g id="node28" class="node">
<title>n111_11</title>
<ellipse fill="none" stroke="black" cx="42.9" cy="-384.18" rx="42.79" ry="18"/>
<text text-anchor="middle" x="42.9" y="-380.48" font-family="Times,serif" font-size="14.00">111,11</text>
</g>
<!-- n127_39&#45;&#45;n111_11 -->
<g id="edge29" class="edge">
<title>n127_39&#45;&#45;n111_11</title>
<path fill="none" stroke="black" d="M52.37,-446.29C50.37,-433.14 47.67,-415.47 45.67,-402.34"/>
<text text-anchor="middle" x="35.02" y="-428.12" font-family="Times,serif" font-size="14.00">468</text>
</g>
<!-- n15_83 -->
<g id="node17" class="node">
<title>n15_83</title>
<ellipse fill="none" stroke="black" cx="446.22" cy="-249.57" rx="37.09" ry="18"/>
<text text-anchor="middle" x="446.22" y="-245.87" font-family="Times,serif" font-size="14.00">15,83</text>
</g>
<!-- n35_79&#45;&#45;n15_83 -->
<g id="edge17" class="edge">
<title>n35_79&#45;&#45;n15_83</title>
<path fill="none" stroke="black" d="M407.21,-292.5C414.71,-284.25 423.75,-274.3 431.24,-266.06"/>
<text text-anchor="middle" x="409.72" y="-268.08" font-family="Times,serif" font-size="14.00">84</text>
</g>
<!-- n15_83&#45;&#45;n11_103 -->
<g id="edge54" class="edge">
<title>n15_83&#45;&#45;n11_103</title>
<path fill="none" stroke="black" d="M462.56,-265.79C471.81,-274.97 483.36,-286.44 492.72,-295.73"/>
<text text-anchor="middle" x="463.64" y="-284.56" font-family="Times,serif" font-size="14.00">176</text>
</g>
<!-- n57_75 -->
<g id="node18" class="node">
<title>n57_75</title>
<ellipse fill="none" stroke="black" cx="342.37" cy="-379.44" rx="37.09" ry="18"/>
<text text-anchor="middle" x="342.37" y="-375.74" font-family="Times,serif" font-size="14.00">57,75</text>
</g>
<!-- n57_75&#45;&#45;n35_79 -->
<g id="edge18" class="edge">
<title>n57_75&#45;&#45;n35_79</title>
<path fill="none" stroke="black" d="M354.42,-362.41C362.13,-351.51 372.11,-337.41 379.87,-326.45"/>
<text text-anchor="middle" x="353.14" y="-348.23" font-family="Times,serif" font-size="14.00">106</text>
</g>
<!-- n57_75&#45;&#45;n55_59 -->
<g id="edge19" class="edge">
<title>n57_75&#45;&#45;n55_59</title>
<path fill="none" stroke="black" d="M322.05,-364.07C313.14,-357.33 302.72,-349.44 293.8,-342.7"/>
<text text-anchor="middle" x="298.43" y="-357.18" font-family="Times,serif" font-size="14.00">46</text>
</g>
<!-- n53_39 -->
<g id="node22" class="node">
<title>n53_39</title>
<ellipse fill="none" stroke="black" cx="203.65" cy="-276.08" rx="37.09" ry="18"/>
<text text-anchor="middle" x="203.65" y="-272.38" font-family="Times,serif" font-size="14.00">53,39</text>
</g>
<!-- n55_59&#45;&#45;n53_39 -->
<g id="edge24" class="edge">
<title>n55_59&#45;&#45;n53_39</title>
<path fill="none" stroke="black" d="M252.84,-312.17C243.84,-305.57 233.3,-297.84 224.29,-291.23"/>
<text text-anchor="middle" x="224.57" y="-305.5" font-family="Times,serif" font-size="14.00">118</text>
</g>
<!-- n43_67 -->
<g id="node24" class="node">
<title>n43_67</title>
<ellipse fill="none" stroke="black" cx="324.32" cy="-257.36" rx="37.09" ry="18"/>
<text text-anchor="middle" x="324.32" y="-253.66" font-family="Times,serif" font-size="14.00">43,67</text>
</g>
<!-- n55_59&#45;&#45;n43_67 -->
<g id="edge23" class="edge">
<title>n55_59&#45;&#45;n43_67</title>
<path fill="none" stroke="black" d="M285.98,-309.97C293.87,-299.14 304.01,-285.23 311.87,-274.44"/>
<text text-anchor="middle" x="289.43" y="-296.01" font-family="Times,serif" font-size="14.00">36</text>
</g>
<!-- n57_7 -->
<g id="node20" class="node">
<title>n57_7</title>
<ellipse fill="none" stroke="black" cx="133.22" cy="-231.79" rx="31.4" ry="18"/>
<text text-anchor="middle" x="133.22" y="-228.09" font-family="Times,serif" font-size="14.00">57,7</text>
</g>
<!-- n33_5 -->
<g id="node21" class="node">
<title>n33_5</title>
<ellipse fill="none" stroke="black" cx="184.35" cy="-161.48" rx="31.4" ry="18"/>
<text text-anchor="middle" x="184.35" y="-157.78" font-family="Times,serif" font-size="14.00">33,5</text>
</g>
<!-- n57_7&#45;&#45;n33_5 -->
<g id="edge20" class="edge">
<title>n57_7&#45;&#45;n33_5</title>
<path fill="none" stroke="black" d="M145.34,-215.13C153.37,-204.08 163.88,-189.63 171.97,-178.51"/>
<text text-anchor="middle" x="144.65" y="-200.62" font-family="Times,serif" font-size="14.00">138</text>
</g>
<!-- n57_7&#45;&#45;n53_39 -->
<g id="edge21" class="edge">
<title>n57_7&#45;&#45;n53_39</title>
<path fill="none" stroke="black" d="M154.35,-245.08C162.62,-250.28 172.12,-256.26 180.57,-261.57"/>
<text text-anchor="middle" x="181.46" y="-242.12" font-family="Times,serif" font-size="14.00">208</text>
</g>
<!-- n13_5 -->
<g id="node32" class="node">
<title>n13_5</title>
<ellipse fill="none" stroke="black" cx="236.9" cy="-94.73" rx="31.4" ry="18"/>
<text text-anchor="middle" x="236.9" y="-91.03" font-family="Times,serif" font-size="14.00">13,5</text>
</g>
<!-- n33_5&#45;&#45;n13_5 -->
<g id="edge52" class="edge">
<title>n33_5&#45;&#45;n13_5</title>
<path fill="none" stroke="black" d="M197.34,-144.98C205.37,-134.79 215.63,-121.75 223.7,-111.51"/>
<text text-anchor="middle" x="201.02" y="-132.05" font-family="Times,serif" font-size="14.00">88</text>
</g>
<!-- n39_33 -->
<g id="node27" class="node">
<title>n39_33</title>
<ellipse fill="none" stroke="black" cx="254.78" cy="-207.3" rx="37.09" ry="18"/>
<text text-anchor="middle" x="254.78" y="-203.6" font-family="Times,serif" font-size="14.00">39,33</text>
</g>
<!-- n53_39&#45;&#45;n39_33 -->
<g id="edge53" class="edge">
<title>n53_39&#45;&#45;n39_33</title>
<path fill="none" stroke="black" d="M216.29,-259.08C224.1,-248.58 234.09,-235.14 241.93,-224.58"/>
<text text-anchor="middle" x="219.61" y="-245.63" font-family="Times,serif" font-size="14.00">48</text>
</g>
<!-- n140_139 -->
<g id="node23" class="node">
<title>n140_139</title>
<ellipse fill="none" stroke="black" cx="334.82" cy="-760.77" rx="48.99" ry="18"/>
<text text-anchor="middle" x="334.82" y="-757.07" font-family="Times,serif" font-size="14.00">140,139</text>
</g>
<!-- n140_139&#45;&#45;n133_127 -->
<g id="edge22" class="edge">
<title>n140_139&#45;&#45;n133_127</title>
<path fill="none" stroke="black" d="M332.97,-742.67C331.67,-730.06 329.96,-713.32 328.67,-700.73"/>
<text text-anchor="middle" x="321.32" y="-725.5" font-family="Times,serif" font-size="14.00">75</text>
</g>
<!-- n43_67&#45;&#45;n35_79 -->
<g id="edge27" class="edge">
<title>n43_67&#45;&#45;n35_79</title>
<path fill="none" stroke="black" d="M344.3,-272.6C353.06,-279.27 363.31,-287.09 372.07,-293.77"/>
<text text-anchor="middle" x="348.69" y="-286.99" font-family="Times,serif" font-size="14.00">48</text>
</g>
<!-- n43_67&#45;&#45;n39_33 -->
<g id="edge26" class="edge">
<title>n43_67&#45;&#45;n39_33</title>
<path fill="none" stroke="black" d="M303.46,-242.34C294.65,-236 284.43,-228.64 275.63,-222.31"/>
<text text-anchor="middle" x="275.54" y="-236.12" font-family="Times,serif" font-size="14.00">242</text>
</g>
<!-- n55_135 -->
<g id="node25" class="node">
<title>n55_135</title>
<ellipse fill="none" stroke="black" cx="480.31" cy="-472.31" rx="42.79" ry="18"/>
<text text-anchor="middle" x="480.31" y="-468.61" font-family="Times,serif" font-size="14.00">55,135</text>
</g>
<!-- n55_135&#45;&#45;n43_129 -->
<g id="edge25" class="edge">
<title>n55_135&#45;&#45;n43_129</title>
<path fill="none" stroke="black" d="M489.77,-454.37C496.64,-441.34 505.88,-423.79 512.71,-410.84"/>
<text text-anchor="middle" x="487.24" y="-436.4" font-family="Times,serif" font-size="14.00">106</text>
</g>
<!-- n11_37 -->
<g id="node26" class="node">
<title>n11_37</title>
<ellipse fill="none" stroke="black" cx="307.45" cy="-141.89" rx="37.09" ry="18"/>
<text text-anchor="middle" x="307.45" y="-138.19" font-family="Times,serif" font-size="14.00">11,37</text>
</g>
<!-- n39_33&#45;&#45;n33_5 -->
<g id="edge35" class="edge">
<title>n39_33&#45;&#45;n33_5</title>
<path fill="none" stroke="black" d="M232.5,-192.8C223.79,-187.14 213.86,-180.68 205.29,-175.11"/>
<text text-anchor="middle" x="232.89" y="-172.75" font-family="Times,serif" font-size="14.00">154</text>
</g>
<!-- n39_33&#45;&#45;n11_37 -->
<g id="edge34" class="edge">
<title>n39_33&#45;&#45;n11_37</title>
<path fill="none" stroke="black" d="M268.34,-190.45C276.15,-180.76 285.92,-168.62 293.75,-158.9"/>
<text text-anchor="middle" x="267.05" y="-178.48" font-family="Times,serif" font-size="14.00">144</text>
</g>
<!-- n111_11&#45;&#45;n101_37 -->
<g id="edge42" class="edge">
<title>n111_11&#45;&#45;n101_37</title>
<path fill="none" stroke="black" d="M71.16,-397.79C73.89,-399.11 76.66,-400.44 79.39,-401.76"/>
<text text-anchor="middle" x="89.27" y="-388.58" font-family="Times,serif" font-size="14.00">184</text>
</g>
<!-- n85_35 -->
<g id="node29" class="node">
<title>n85_35</title>
<ellipse fill="none" stroke="black" cx="154.48" cy="-345.75" rx="37.09" ry="18"/>
<text text-anchor="middle" x="154.48" y="-342.05" font-family="Times,serif" font-size="14.00">85,35</text>
</g>
<!-- n85_35&#45;&#45;n75_63 -->
<g id="edge33" class="edge">
<title>n85_35&#45;&#45;n75_63</title>
<path fill="none" stroke="black" d="M174.74,-361.07C183.61,-367.78 194,-375.64 202.89,-382.35"/>
<text text-anchor="middle" x="174.81" y="-375.51" font-family="Times,serif" font-size="14.00">210</text>
</g>
<!-- n85_35&#45;&#45;n101_37 -->
<g id="edge31" class="edge">
<title>n85_35&#45;&#45;n101_37</title>
<path fill="none" stroke="black" d="M142.93,-362.97C135.8,-373.61 126.67,-387.22 119.5,-397.91"/>
<text text-anchor="middle" x="121.71" y="-384.24" font-family="Times,serif" font-size="14.00">58</text>
</g>
<!-- n85_35&#45;&#45;n53_39 -->
<g id="edge30" class="edge">
<title>n85_35&#45;&#45;n53_39</title>
<path fill="none" stroke="black" d="M166.64,-328.53C174.14,-317.89 183.75,-304.28 191.3,-293.59"/>
<text text-anchor="middle" x="164.97" y="-314.86" font-family="Times,serif" font-size="14.00">164</text>
</g>
<!-- n77_7 -->
<g id="node30" class="node">
<title>n77_7</title>
<ellipse fill="none" stroke="black" cx="84.68" cy="-305.48" rx="31.4" ry="18"/>
<text text-anchor="middle" x="84.68" y="-301.78" font-family="Times,serif" font-size="14.00">77,7</text>
</g>
<!-- n85_35&#45;&#45;n77_7 -->
<g id="edge32" class="edge">
<title>n85_35&#45;&#45;n77_7</title>
<path fill="none" stroke="black" d="M130.46,-331.89C122.89,-327.52 114.56,-322.71 107.1,-318.41"/>
<text text-anchor="middle" x="132.78" y="-313.95" font-family="Times,serif" font-size="14.00">200</text>
</g>
<!-- n77_7&#45;&#45;n57_7 -->
<g id="edge50" class="edge">
<title>n77_7&#45;&#45;n57_7</title>
<path fill="none" stroke="black" d="M95.94,-288.39C103.78,-276.48 114.2,-260.67 122.02,-248.79"/>
<text text-anchor="middle" x="94.98" y="-272.39" font-family="Times,serif" font-size="14.00">140</text>
</g>
<!-- n77_7&#45;&#45;n111_11 -->
<g id="edge51" class="edge">
<title>n77_7&#45;&#45;n111_11</title>
<path fill="none" stroke="black" d="M75.41,-322.94C68.53,-335.9 59.19,-353.49 52.29,-366.49"/>
<text text-anchor="middle" x="49.85" y="-348.52" font-family="Times,serif" font-size="14.00">226</text>
</g>
<!-- n83_75 -->
<g id="node31" class="node">
<title>n83_75</title>
<ellipse fill="none" stroke="black" cx="292.23" cy="-449.93" rx="37.09" ry="18"/>
<text text-anchor="middle" x="292.23" y="-446.23" font-family="Times,serif" font-size="14.00">83,75</text>
</g>
<!-- n83_75&#45;&#45;n79_101 -->
<g id="edge39" class="edge">
<title>n83_75&#45;&#45;n79_101</title>
<path fill="none" stroke="black" d="M312.71,-465.08C321.36,-471.48 331.45,-478.94 340.21,-485.42"/>
<text text-anchor="middle" x="340.46" y="-464.05" font-family="Times,serif" font-size="14.00">118</text>
</g>
<!-- n83_75&#45;&#45;n101_87 -->
<g id="edge37" class="edge">
<title>n83_75&#45;&#45;n101_87</title>
<path fill="none" stroke="black" d="M279.56,-467.15C271.74,-477.79 261.73,-491.41 253.87,-502.1"/>
<text text-anchor="middle" x="252.72" y="-488.43" font-family="Times,serif" font-size="14.00">118</text>
</g>
<!-- n83_75&#45;&#45;n75_63 -->
<g id="edge38" class="edge">
<title>n83_75&#45;&#45;n75_63</title>
<path fill="none" stroke="black" d="M271.9,-434.56C263,-427.82 252.57,-419.93 243.66,-413.19"/>
<text text-anchor="middle" x="248.28" y="-427.67" font-family="Times,serif" font-size="14.00">48</text>
</g>
<!-- n83_75&#45;&#45;n57_75 -->
<g id="edge36" class="edge">
<title>n83_75&#45;&#45;n57_75</title>
<path fill="none" stroke="black" d="M304.37,-432.87C312.13,-421.95 322.18,-407.82 330,-396.84"/>
<text text-anchor="middle" x="303.18" y="-418.65" font-family="Times,serif" font-size="14.00">102</text>
</g>
<!-- n13_5&#45;&#45;n11_37 -->
<g id="edge41" class="edge">
<title>n13_5&#45;&#45;n11_37</title>
<path fill="none" stroke="black" d="M257.31,-108.37C266.1,-114.25 276.4,-121.13 285.37,-127.13"/>
<text text-anchor="middle" x="285.34" y="-106.55" font-family="Times,serif" font-size="14.00">258</text>
</g>
<!-- n0_1 -->
<g id="node33" class="node">
<title>n0_1</title>
<ellipse fill="none" stroke="black" cx="220.66" cy="-18" rx="27" ry="18"/>
<text text-anchor="middle" x="220.66" y="-14.3" font-family="Times,serif" font-size="14.00">0,1</text>
</g>
<!-- n13_5&#45;&#45;n0_1 -->
<g id="edge40" class="edge">
<title>n13_5&#45;&#45;n0_1</title>
<path fill="none" stroke="black" d="M233.05,-76.55C230.46,-64.32 227.07,-48.26 224.48,-36.05"/>
<text text-anchor="middle" x="219.27" y="-60.1" font-family="Times,serif" font-size="14.00">81</text>
</g>
<!-- n9_61 -->
<g id="node34" class="node">
<title>n9_61</title>
<ellipse fill="none" stroke="black" cx="377.59" cy="-193.65" rx="31.4" ry="18"/>
<text text-anchor="middle" x="377.59" y="-189.95" font-family="Times,serif" font-size="14.00">9,61</text>
</g>
<!-- n9_61&#45;&#45;n15_83 -->
<g id="edge46" class="edge">
<title>n9_61&#45;&#45;n15_83</title>
<path fill="none" stroke="black" d="M395.62,-208.34C405.31,-216.24 417.26,-225.97 427.11,-234"/>
<text text-anchor="middle" x="425.36" y="-209.97" font-family="Times,serif" font-size="14.00">144</text>
</g>
<!-- n9_61&#45;&#45;n43_67 -->
<g id="edge44" class="edge">
<title>n9_61&#45;&#45;n43_67</title>
<path fill="none" stroke="black" d="M363.87,-210.06C356.1,-219.35 346.4,-230.95 338.55,-240.34"/>
<text text-anchor="middle" x="337.21" y="-214" font-family="Times,serif" font-size="14.00">196</text>
</g>
<!-- n9_61&#45;&#45;n11_37 -->
<g id="edge45" class="edge">
<title>n9_61&#45;&#45;n11_37</title>
<path fill="none" stroke="black" d="M358.05,-179.23C348.65,-172.29 337.38,-163.97 327.86,-156.95"/>
<text text-anchor="middle" x="328.96" y="-171.89" font-family="Times,serif" font-size="14.00">286</text>
</g>
<!-- n67_101&#45;&#45;n43_105 -->
<g id="edge47" class="edge">
<title>n67_101&#45;&#45;n43_105</title>
<path fill="none" stroke="black" d="M422.68,-414.03C429.78,-403.36 438.79,-389.8 445.86,-379.17"/>
<text text-anchor="middle" x="420.27" y="-400.4" font-family="Times,serif" font-size="14.00">148</text>
</g>
<!-- n67_101&#45;&#45;n57_75 -->
<g id="edge48" class="edge">
<title>n67_101&#45;&#45;n57_75</title>
<path fill="none" stroke="black" d="M390,-415.71C381.33,-409.11 371.32,-401.49 362.72,-394.94"/>
<text text-anchor="middle" x="390.36" y="-394.13" font-family="Times,serif" font-size="14.00">152</text>
</g>
<!-- n67_101&#45;&#45;n55_135 -->
<g id="edge49" class="edge">
<title>n67_101&#45;&#45;n55_135</title>
<path fill="none" stroke="black" d="M435.99,-446.34C442.2,-449.98 448.85,-453.88 455.07,-457.52"/>
<text text-anchor="middle" x="431.53" y="-455.73" font-family="Times,serif" font-size="14.00">154</text>
</g>
<!-- n77_125&#45;&#45;n101_129 -->
<g id="edge56" class="edge">
<title>n77_125&#45;&#45;n101_129</title>
<path fill="none" stroke="black" d="M418.89,-563.64C411.03,-574.39 400.97,-588.14 393.07,-598.94"/>
<text text-anchor="middle" x="391.98" y="-585.09" font-family="Times,serif" font-size="14.00">236</text>
</g>
<!-- n77_125&#45;&#45;n55_135 -->
<g id="edge55" class="edge">
<title>n77_125&#45;&#45;n55_135</title>
<path fill="none" stroke="black" d="M443.15,-528.72C450.92,-516.93 461.11,-501.46 468.85,-489.7"/>
<text text-anchor="middle" x="442" y="-513.01" font-family="Times,serif" font-size="14.00">120</text>
</g>
</g>
</svg>
