<?xml version="1.0" encoding="UTF-8" standalone="no"?>
<!DOCTYPE svg PUBLIC "-//W3C//DTD SVG 1.1//EN"
 "http://www.w3.org/Graphics/SVG/1.1/DTD/svg11.dtd">
<!-- Generated by graphviz version 2.43.0 (0)
 -->
<!-- Title: AOC Pages: 1 -->
<svg width="523pt" height="914pt"
 viewBox="0.00 0.00 522.90 914.00" xmlns="http://www.w3.org/2000/svg" xmlns:xlink="http://www.w3.org/1999/xlink">
<g id="graph0" class="graph" transform="scale(1 1) rotate(0) translate(4 910)">
<title>AOC</title>
<polygon fill="white" stroke="transparent" points="-4,4 -4,-910 518.9,-910 518.9,4 -4,4"/>
<!-- n15_83 -->
<g id="node1" class="node">
<title>n15_83</title>
<ellipse fill="none" stroke="black" cx="93.9" cy="-540" rx="37.09" ry="18"/>
<text text-anchor="middle" x="93.9" y="-536.3" font-family="Times,serif" font-size="14.00">15,83</text>
</g>
<!-- n35_79 -->
<g id="node2" class="node">
<title>n35_79</title>
<ellipse fill="none" stroke="black" cx="140.9" cy="-453" rx="37.09" ry="18"/>
<text text-anchor="middle" x="140.9" y="-449.3" font-family="Times,serif" font-size="14.00">35,79</text>
</g>
<!-- n15_83&#45;&gt;n35_79 -->
<g id="edge1" class="edge">
<title>n15_83&#45;&gt;n35_79</title>
<path fill="none" stroke="black" d="M102.8,-522.28C108.01,-512.54 114.76,-500.04 120.9,-489 122.61,-485.91 124.43,-482.67 126.25,-479.47"/>
<polygon fill="black" stroke="black" points="129.34,-481.11 131.25,-470.69 123.26,-477.64 129.34,-481.11"/>
<text text-anchor="middle" x="130.4" y="-492.8" font-family="Times,serif" font-size="14.00">84</text>
</g>
<!-- n11_103 -->
<g id="node3" class="node">
<title>n11_103</title>
<ellipse fill="none" stroke="black" cx="42.9" cy="-453" rx="42.79" ry="18"/>
<text text-anchor="middle" x="42.9" y="-449.3" font-family="Times,serif" font-size="14.00">11,103</text>
</g>
<!-- n15_83&#45;&gt;n11_103 -->
<g id="edge2" class="edge">
<title>n15_83&#45;&gt;n11_103</title>
<path fill="none" stroke="black" d="M84.06,-522.61C76.7,-510.34 66.5,-493.34 58.09,-479.32"/>
<polygon fill="black" stroke="black" points="61.02,-477.4 52.87,-470.63 55.02,-481 61.02,-477.4"/>
<text text-anchor="middle" x="85.9" y="-492.8" font-family="Times,serif" font-size="14.00">176</text>
</g>
<!-- n43_105 -->
<g id="node7" class="node">
<title>n43_105</title>
<ellipse fill="none" stroke="black" cx="102.9" cy="-366" rx="42.79" ry="18"/>
<text text-anchor="middle" x="102.9" y="-362.3" font-family="Times,serif" font-size="14.00">43,105</text>
</g>
<!-- n35_79&#45;&gt;n43_105 -->
<g id="edge11" class="edge">
<title>n35_79&#45;&gt;n43_105</title>
<path fill="none" stroke="black" d="M123.85,-436.72C118.55,-431.05 113.23,-424.22 109.9,-417 106.7,-410.07 104.87,-402.08 103.85,-394.55"/>
<polygon fill="black" stroke="black" points="107.31,-393.98 102.87,-384.36 100.34,-394.65 107.31,-393.98"/>
<text text-anchor="middle" x="123.9" y="-405.8" font-family="Times,serif" font-size="14.00">230</text>
</g>
<!-- n57_75 -->
<g id="node13" class="node">
<title>n57_75</title>
<ellipse fill="none" stroke="black" cx="205.9" cy="-366" rx="37.09" ry="18"/>
<text text-anchor="middle" x="205.9" y="-362.3" font-family="Times,serif" font-size="14.00">57,75</text>
</g>
<!-- n35_79&#45;&gt;n57_75 -->
<g id="edge10" class="edge">
<title>n35_79&#45;&gt;n57_75</title>
<path fill="none" stroke="black" d="M153.43,-435.61C163.02,-423.07 176.4,-405.57 187.25,-391.38"/>
<polygon fill="black" stroke="black" points="190.33,-393.12 193.62,-383.05 184.77,-388.87 190.33,-393.12"/>
<text text-anchor="middle" x="191.9" y="-405.8" font-family="Times,serif" font-size="14.00">106</text>
</g>
<!-- n140_139 -->
<g id="node6" class="node">
<title>n140_139</title>
<ellipse fill="none" stroke="black" cx="239.9" cy="-18" rx="48.99" ry="18"/>
<text text-anchor="middle" x="239.9" y="-14.3" font-family="Times,serif" font-size="14.00">140,139</text>
</g>
<!-- n11_103&#45;&gt;n140_139 -->
<g id="edge23" class="edge">
<title>n11_103&#45;&gt;n140_139</title>
<path fill="none" stroke="black" d="M36.14,-435.05C30,-418.1 21.9,-391.17 21.9,-367 21.9,-367 21.9,-367 21.9,-104 21.9,-68.25 52.65,-69.43 84.9,-54 115.86,-39.18 153.34,-30.5 183.69,-25.49"/>
<polygon fill="black" stroke="black" points="184.35,-28.93 193.69,-23.92 183.27,-22.01 184.35,-28.93"/>
<text text-anchor="middle" x="40.4" y="-231.8" font-family="Times,serif" font-size="14.00">1425</text>
</g>
<!-- n11_103&#45;&gt;n43_105 -->
<g id="edge22" class="edge">
<title>n11_103&#45;&gt;n43_105</title>
<path fill="none" stroke="black" d="M52.4,-435.42C58.27,-425.5 66.14,-412.78 73.9,-402 76.56,-398.3 79.5,-394.48 82.45,-390.79"/>
<polygon fill="black" stroke="black" points="85.2,-392.96 88.85,-383.01 79.79,-388.52 85.2,-392.96"/>
<text text-anchor="middle" x="87.9" y="-405.8" font-family="Times,serif" font-size="14.00">198</text>
</g>
<!-- n67_101 -->
<g id="node4" class="node">
<title>n67_101</title>
<ellipse fill="none" stroke="black" cx="150.9" cy="-279" rx="42.79" ry="18"/>
<text text-anchor="middle" x="150.9" y="-275.3" font-family="Times,serif" font-size="14.00">67,101</text>
</g>
<!-- n79_101 -->
<g id="node5" class="node">
<title>n79_101</title>
<ellipse fill="none" stroke="black" cx="200.9" cy="-192" rx="42.79" ry="18"/>
<text text-anchor="middle" x="200.9" y="-188.3" font-family="Times,serif" font-size="14.00">79,101</text>
</g>
<!-- n67_101&#45;&gt;n79_101 -->
<g id="edge3" class="edge">
<title>n67_101&#45;&gt;n79_101</title>
<path fill="none" stroke="black" d="M155.63,-261.09C158.85,-251.06 163.65,-238.33 169.9,-228 172.28,-224.07 175.12,-220.16 178.11,-216.46"/>
<polygon fill="black" stroke="black" points="180.87,-218.62 184.75,-208.76 175.57,-214.05 180.87,-218.62"/>
<text text-anchor="middle" x="179.4" y="-231.8" font-family="Times,serif" font-size="14.00">32</text>
</g>
<!-- n67_101&#45;&gt;n140_139 -->
<g id="edge4" class="edge">
<title>n67_101&#45;&gt;n140_139</title>
<path fill="none" stroke="black" d="M147.72,-260.92C143.42,-234.78 137.25,-183.44 145.9,-141 154.29,-99.83 155.47,-85.83 182.9,-54 188.17,-47.88 194.79,-42.49 201.64,-37.9"/>
<polygon fill="black" stroke="black" points="203.68,-40.76 210.34,-32.52 200,-34.8 203.68,-40.76"/>
<text text-anchor="middle" x="159.9" y="-144.8" font-family="Times,serif" font-size="14.00">871</text>
</g>
<!-- n79_101&#45;&gt;n140_139 -->
<g id="edge31" class="edge">
<title>n79_101&#45;&gt;n140_139</title>
<path fill="none" stroke="black" d="M191.08,-174.34C180.1,-153.42 165.26,-116.67 176.9,-87 183.92,-69.09 198.12,-53.08 211.26,-41.1"/>
<polygon fill="black" stroke="black" points="213.57,-43.73 218.82,-34.53 208.98,-38.45 213.57,-43.73"/>
<text text-anchor="middle" x="190.9" y="-101.3" font-family="Times,serif" font-size="14.00">731</text>
</g>
<!-- n99_99 -->
<g id="node14" class="node">
<title>n99_99</title>
<ellipse fill="none" stroke="black" cx="250.9" cy="-105" rx="37.09" ry="18"/>
<text text-anchor="middle" x="250.9" y="-101.3" font-family="Times,serif" font-size="14.00">99,99</text>
</g>
<!-- n79_101&#45;&gt;n99_99 -->
<g id="edge30" class="edge">
<title>n79_101&#45;&gt;n99_99</title>
<path fill="none" stroke="black" d="M207.18,-173.79C211.11,-163.88 216.61,-151.38 222.9,-141 225.16,-137.26 227.79,-133.47 230.5,-129.84"/>
<polygon fill="black" stroke="black" points="233.44,-131.76 236.87,-121.74 227.93,-127.43 233.44,-131.76"/>
<text text-anchor="middle" x="236.9" y="-144.8" font-family="Times,serif" font-size="14.00">150</text>
</g>
<!-- n43_105&#45;&gt;n67_101 -->
<g id="edge5" class="edge">
<title>n43_105&#45;&gt;n67_101</title>
<path fill="none" stroke="black" d="M105.94,-348C108.23,-337.94 112,-325.2 117.9,-315 120.33,-310.79 123.36,-306.69 126.59,-302.86"/>
<polygon fill="black" stroke="black" points="129.21,-305.18 133.38,-295.44 124.05,-300.45 129.21,-305.18"/>
<text text-anchor="middle" x="131.9" y="-318.8" font-family="Times,serif" font-size="14.00">148</text>
</g>
<!-- n43_105&#45;&gt;n140_139 -->
<g id="edge6" class="edge">
<title>n43_105&#45;&gt;n140_139</title>
<path fill="none" stroke="black" d="M93.56,-348.32C85.08,-331.58 73.9,-304.79 73.9,-280 73.9,-280 73.9,-280 73.9,-104 73.9,-53.82 134.73,-33.25 182.75,-24.82"/>
<polygon fill="black" stroke="black" points="183.46,-28.25 192.77,-23.2 182.34,-21.34 183.46,-28.25"/>
<text text-anchor="middle" x="87.9" y="-188.3" font-family="Times,serif" font-size="14.00">959</text>
</g>
<!-- n0_1 -->
<g id="node8" class="node">
<title>n0_1</title>
<ellipse fill="none" stroke="black" cx="240.9" cy="-888" rx="27" ry="18"/>
<text text-anchor="middle" x="240.9" y="-884.3" font-family="Times,serif" font-size="14.00">0,1</text>
</g>
<!-- n13_5 -->
<g id="node9" class="node">
<title>n13_5</title>
<ellipse fill="none" stroke="black" cx="240.9" cy="-801" rx="31.4" ry="18"/>
<text text-anchor="middle" x="240.9" y="-797.3" font-family="Times,serif" font-size="14.00">13,5</text>
</g>
<!-- n0_1&#45;&gt;n13_5 -->
<g id="edge7" class="edge">
<title>n0_1&#45;&gt;n13_5</title>
<path fill="none" stroke="black" d="M240.9,-869.8C240.9,-858.16 240.9,-842.55 240.9,-829.24"/>
<polygon fill="black" stroke="black" points="244.4,-829.18 240.9,-819.18 237.4,-829.18 244.4,-829.18"/>
<text text-anchor="middle" x="250.4" y="-840.8" font-family="Times,serif" font-size="14.00">81</text>
</g>
<!-- n11_37 -->
<g id="node16" class="node">
<title>n11_37</title>
<ellipse fill="none" stroke="black" cx="198.9" cy="-714" rx="37.09" ry="18"/>
<text text-anchor="middle" x="198.9" y="-710.3" font-family="Times,serif" font-size="14.00">11,37</text>
</g>
<!-- n13_5&#45;&gt;n11_37 -->
<g id="edge47" class="edge">
<title>n13_5&#45;&gt;n11_37</title>
<path fill="none" stroke="black" d="M232.8,-783.61C226.79,-771.46 218.49,-754.66 211.61,-740.73"/>
<polygon fill="black" stroke="black" points="214.68,-739.04 207.11,-731.63 208.4,-742.14 214.68,-739.04"/>
<text text-anchor="middle" x="236.9" y="-753.8" font-family="Times,serif" font-size="14.00">258</text>
</g>
<!-- n33_5 -->
<g id="node27" class="node">
<title>n33_5</title>
<ellipse fill="none" stroke="black" cx="284.9" cy="-714" rx="31.4" ry="18"/>
<text text-anchor="middle" x="284.9" y="-710.3" font-family="Times,serif" font-size="14.00">33,5</text>
</g>
<!-- n13_5&#45;&gt;n33_5 -->
<g id="edge46" class="edge">
<title>n13_5&#45;&gt;n33_5</title>
<path fill="none" stroke="black" d="M249.38,-783.61C255.71,-771.38 264.48,-754.44 271.72,-740.46"/>
<polygon fill="black" stroke="black" points="274.95,-741.83 276.44,-731.34 268.73,-738.61 274.95,-741.83"/>
<text text-anchor="middle" x="275.4" y="-753.8" font-family="Times,serif" font-size="14.00">88</text>
</g>
<!-- n57_7 -->
<g id="node10" class="node">
<title>n57_7</title>
<ellipse fill="none" stroke="black" cx="322.9" cy="-627" rx="31.4" ry="18"/>
<text text-anchor="middle" x="322.9" y="-623.3" font-family="Times,serif" font-size="14.00">57,7</text>
</g>
<!-- n77_7 -->
<g id="node11" class="node">
<title>n77_7</title>
<ellipse fill="none" stroke="black" cx="363.9" cy="-540" rx="31.4" ry="18"/>
<text text-anchor="middle" x="363.9" y="-536.3" font-family="Times,serif" font-size="14.00">77,7</text>
</g>
<!-- n57_7&#45;&gt;n77_7 -->
<g id="edge8" class="edge">
<title>n57_7&#45;&gt;n77_7</title>
<path fill="none" stroke="black" d="M331.65,-609.34C334.64,-603.56 337.97,-597.02 340.9,-591 344.66,-583.27 348.62,-574.79 352.17,-567.05"/>
<polygon fill="black" stroke="black" points="355.45,-568.3 356.41,-557.75 349.08,-565.4 355.45,-568.3"/>
<text text-anchor="middle" x="360.9" y="-579.8" font-family="Times,serif" font-size="14.00">140</text>
</g>
<!-- n53_39 -->
<g id="node12" class="node">
<title>n53_39</title>
<ellipse fill="none" stroke="black" cx="277.9" cy="-540" rx="37.09" ry="18"/>
<text text-anchor="middle" x="277.9" y="-536.3" font-family="Times,serif" font-size="14.00">53,39</text>
</g>
<!-- n57_7&#45;&gt;n53_39 -->
<g id="edge9" class="edge">
<title>n57_7&#45;&gt;n53_39</title>
<path fill="none" stroke="black" d="M314.22,-609.61C307.79,-597.46 298.89,-580.66 291.52,-566.73"/>
<polygon fill="black" stroke="black" points="294.47,-564.83 286.7,-557.63 288.29,-568.1 294.47,-564.83"/>
<text text-anchor="middle" x="317.9" y="-579.8" font-family="Times,serif" font-size="14.00">208</text>
</g>
<!-- n85_35 -->
<g id="node22" class="node">
<title>n85_35</title>
<ellipse fill="none" stroke="black" cx="324.9" cy="-453" rx="37.09" ry="18"/>
<text text-anchor="middle" x="324.9" y="-449.3" font-family="Times,serif" font-size="14.00">85,35</text>
</g>
<!-- n77_7&#45;&gt;n85_35 -->
<g id="edge33" class="edge">
<title>n77_7&#45;&gt;n85_35</title>
<path fill="none" stroke="black" d="M356.19,-522.21C350.69,-510.22 343.18,-493.85 336.9,-480.16"/>
<polygon fill="black" stroke="black" points="339.94,-478.39 332.59,-470.76 333.57,-481.31 339.94,-478.39"/>
<text text-anchor="middle" x="359.9" y="-492.8" font-family="Times,serif" font-size="14.00">200</text>
</g>
<!-- n111_11 -->
<g id="node26" class="node">
<title>n111_11</title>
<ellipse fill="none" stroke="black" cx="422.9" cy="-453" rx="42.79" ry="18"/>
<text text-anchor="middle" x="422.9" y="-449.3" font-family="Times,serif" font-size="14.00">111,11</text>
</g>
<!-- n77_7&#45;&gt;n111_11 -->
<g id="edge32" class="edge">
<title>n77_7&#45;&gt;n111_11</title>
<path fill="none" stroke="black" d="M374.99,-523.01C383.62,-510.59 395.74,-493.13 405.63,-478.88"/>
<polygon fill="black" stroke="black" points="408.62,-480.71 411.45,-470.5 402.87,-476.72 408.62,-480.71"/>
<text text-anchor="middle" x="410.9" y="-492.8" font-family="Times,serif" font-size="14.00">226</text>
</g>
<!-- n53_39&#45;&gt;n85_35 -->
<g id="edge44" class="edge">
<title>n53_39&#45;&gt;n85_35</title>
<path fill="none" stroke="black" d="M287.18,-522.21C293.92,-510.02 303.16,-493.32 310.8,-479.49"/>
<polygon fill="black" stroke="black" points="314.01,-480.91 315.79,-470.47 307.89,-477.53 314.01,-480.91"/>
<text text-anchor="middle" x="318.9" y="-492.8" font-family="Times,serif" font-size="14.00">164</text>
</g>
<!-- n55_59 -->
<g id="node25" class="node">
<title>n55_59</title>
<ellipse fill="none" stroke="black" cx="232.9" cy="-453" rx="37.09" ry="18"/>
<text text-anchor="middle" x="232.9" y="-449.3" font-family="Times,serif" font-size="14.00">55,59</text>
</g>
<!-- n53_39&#45;&gt;n55_59 -->
<g id="edge45" class="edge">
<title>n53_39&#45;&gt;n55_59</title>
<path fill="none" stroke="black" d="M264.48,-522.9C260.1,-517.16 255.46,-510.51 251.9,-504 247.93,-496.75 244.42,-488.5 241.54,-480.82"/>
<polygon fill="black" stroke="black" points="244.76,-479.43 238.11,-471.18 238.16,-481.78 244.76,-479.43"/>
<text text-anchor="middle" x="265.9" y="-492.8" font-family="Times,serif" font-size="14.00">118</text>
</g>
<!-- n57_75&#45;&gt;n67_101 -->
<g id="edge15" class="edge">
<title>n57_75&#45;&gt;n67_101</title>
<path fill="none" stroke="black" d="M195.29,-348.61C187.35,-336.34 176.35,-319.34 167.28,-305.32"/>
<polygon fill="black" stroke="black" points="170.03,-303.12 161.66,-296.63 164.15,-306.93 170.03,-303.12"/>
<text text-anchor="middle" x="195.9" y="-318.8" font-family="Times,serif" font-size="14.00">152</text>
</g>
<!-- n83_75 -->
<g id="node15" class="node">
<title>n83_75</title>
<ellipse fill="none" stroke="black" cx="253.9" cy="-279" rx="37.09" ry="18"/>
<text text-anchor="middle" x="253.9" y="-275.3" font-family="Times,serif" font-size="14.00">83,75</text>
</g>
<!-- n57_75&#45;&gt;n83_75 -->
<g id="edge14" class="edge">
<title>n57_75&#45;&gt;n83_75</title>
<path fill="none" stroke="black" d="M215.38,-348.21C222.26,-336.02 231.69,-319.32 239.5,-305.49"/>
<polygon fill="black" stroke="black" points="242.73,-306.9 244.6,-296.47 236.63,-303.46 242.73,-306.9"/>
<text text-anchor="middle" x="246.9" y="-318.8" font-family="Times,serif" font-size="14.00">102</text>
</g>
<!-- n99_99&#45;&gt;n140_139 -->
<g id="edge12" class="edge">
<title>n99_99&#45;&gt;n140_139</title>
<path fill="none" stroke="black" d="M248.67,-86.8C247.16,-75.16 245.14,-59.55 243.42,-46.24"/>
<polygon fill="black" stroke="black" points="246.87,-45.64 242.12,-36.18 239.93,-46.54 246.87,-45.64"/>
<text text-anchor="middle" x="260.9" y="-57.8" font-family="Times,serif" font-size="14.00">429</text>
</g>
<!-- n99_99&#45;&gt;n140_139 -->
<g id="edge13" class="edge">
<title>n99_99&#45;&gt;n140_139</title>
<path fill="none" stroke="black" d="M229.77,-90C223.08,-84.35 216.5,-77.21 212.9,-69 209.17,-60.51 211.82,-51.51 216.67,-43.52"/>
<polygon fill="black" stroke="black" points="219.57,-45.48 222.59,-35.33 213.9,-41.38 219.57,-45.48"/>
<text text-anchor="middle" x="226.9" y="-57.8" font-family="Times,serif" font-size="14.00">541</text>
</g>
<!-- n83_75&#45;&gt;n79_101 -->
<g id="edge27" class="edge">
<title>n83_75&#45;&gt;n79_101</title>
<path fill="none" stroke="black" d="M243.68,-261.61C236.03,-249.34 225.42,-232.34 216.69,-218.32"/>
<polygon fill="black" stroke="black" points="219.53,-216.26 211.26,-209.63 213.59,-219.97 219.53,-216.26"/>
<text text-anchor="middle" x="244.9" y="-231.8" font-family="Times,serif" font-size="14.00">118</text>
</g>
<!-- n101_87 -->
<g id="node24" class="node">
<title>n101_87</title>
<ellipse fill="none" stroke="black" cx="304.9" cy="-192" rx="42.79" ry="18"/>
<text text-anchor="middle" x="304.9" y="-188.3" font-family="Times,serif" font-size="14.00">101,87</text>
</g>
<!-- n83_75&#45;&gt;n101_87 -->
<g id="edge26" class="edge">
<title>n83_75&#45;&gt;n101_87</title>
<path fill="none" stroke="black" d="M263.73,-261.61C271.09,-249.34 281.29,-232.34 289.7,-218.32"/>
<polygon fill="black" stroke="black" points="292.78,-220 294.92,-209.63 286.77,-216.4 292.78,-220"/>
<text text-anchor="middle" x="296.9" y="-231.8" font-family="Times,serif" font-size="14.00">118</text>
</g>
<!-- n39_33 -->
<g id="node17" class="node">
<title>n39_33</title>
<ellipse fill="none" stroke="black" cx="236.9" cy="-627" rx="37.09" ry="18"/>
<text text-anchor="middle" x="236.9" y="-623.3" font-family="Times,serif" font-size="14.00">39,33</text>
</g>
<!-- n11_37&#45;&gt;n39_33 -->
<g id="edge16" class="edge">
<title>n11_37&#45;&gt;n39_33</title>
<path fill="none" stroke="black" d="M205.17,-696.17C208.93,-686.39 213.93,-673.89 218.9,-663 220.29,-659.95 221.8,-656.79 223.35,-653.67"/>
<polygon fill="black" stroke="black" points="226.56,-655.08 227.96,-644.58 220.32,-651.91 226.56,-655.08"/>
<text text-anchor="middle" x="232.9" y="-666.8" font-family="Times,serif" font-size="14.00">144</text>
</g>
<!-- n9_61 -->
<g id="node18" class="node">
<title>n9_61</title>
<ellipse fill="none" stroke="black" cx="150.9" cy="-627" rx="31.4" ry="18"/>
<text text-anchor="middle" x="150.9" y="-623.3" font-family="Times,serif" font-size="14.00">9,61</text>
</g>
<!-- n11_37&#45;&gt;n9_61 -->
<g id="edge17" class="edge">
<title>n11_37&#45;&gt;n9_61</title>
<path fill="none" stroke="black" d="M189.41,-696.21C182.53,-684.02 173.1,-667.32 165.29,-653.49"/>
<polygon fill="black" stroke="black" points="168.16,-651.46 160.2,-644.47 162.07,-654.9 168.16,-651.46"/>
<text text-anchor="middle" x="191.9" y="-666.8" font-family="Times,serif" font-size="14.00">286</text>
</g>
<!-- n39_33&#45;&gt;n53_39 -->
<g id="edge42" class="edge">
<title>n39_33&#45;&gt;n53_39</title>
<path fill="none" stroke="black" d="M245,-609.21C250.78,-597.22 258.67,-580.85 265.28,-567.16"/>
<polygon fill="black" stroke="black" points="268.62,-568.29 269.81,-557.76 262.32,-565.24 268.62,-568.29"/>
<text text-anchor="middle" x="269.4" y="-579.8" font-family="Times,serif" font-size="14.00">48</text>
</g>
<!-- n43_67 -->
<g id="node19" class="node">
<title>n43_67</title>
<ellipse fill="none" stroke="black" cx="185.9" cy="-540" rx="37.09" ry="18"/>
<text text-anchor="middle" x="185.9" y="-536.3" font-family="Times,serif" font-size="14.00">43,67</text>
</g>
<!-- n39_33&#45;&gt;n43_67 -->
<g id="edge43" class="edge">
<title>n39_33&#45;&gt;n43_67</title>
<path fill="none" stroke="black" d="M227.06,-609.61C219.7,-597.34 209.5,-580.34 201.09,-566.32"/>
<polygon fill="black" stroke="black" points="204.02,-564.4 195.87,-557.63 198.02,-568 204.02,-564.4"/>
<text text-anchor="middle" x="228.9" y="-579.8" font-family="Times,serif" font-size="14.00">242</text>
</g>
<!-- n9_61&#45;&gt;n15_83 -->
<g id="edge19" class="edge">
<title>n9_61&#45;&gt;n15_83</title>
<path fill="none" stroke="black" d="M140.17,-610.01C131.84,-597.59 120.13,-580.13 110.58,-565.88"/>
<polygon fill="black" stroke="black" points="113.43,-563.85 104.96,-557.5 107.62,-567.75 113.43,-563.85"/>
<text text-anchor="middle" x="139.9" y="-579.8" font-family="Times,serif" font-size="14.00">144</text>
</g>
<!-- n9_61&#45;&gt;n43_67 -->
<g id="edge18" class="edge">
<title>n9_61&#45;&gt;n43_67</title>
<path fill="none" stroke="black" d="M155.46,-609.05C158.32,-599.23 162.32,-586.73 166.9,-576 168.23,-572.88 169.74,-569.68 171.33,-566.53"/>
<polygon fill="black" stroke="black" points="174.57,-567.89 176.16,-557.42 168.38,-564.62 174.57,-567.89"/>
<text text-anchor="middle" x="180.9" y="-579.8" font-family="Times,serif" font-size="14.00">196</text>
</g>
<!-- n43_67&#45;&gt;n35_79 -->
<g id="edge51" class="edge">
<title>n43_67&#45;&gt;n35_79</title>
<path fill="none" stroke="black" d="M166.02,-524.56C159.57,-518.87 153.03,-511.82 148.9,-504 145.23,-497.05 143.14,-488.86 141.99,-481.14"/>
<polygon fill="black" stroke="black" points="145.46,-480.65 140.92,-471.07 138.49,-481.38 145.46,-480.65"/>
<text text-anchor="middle" x="158.4" y="-492.8" font-family="Times,serif" font-size="14.00">48</text>
</g>
<!-- n43_67&#45;&gt;n55_59 -->
<g id="edge50" class="edge">
<title>n43_67&#45;&gt;n55_59</title>
<path fill="none" stroke="black" d="M195.18,-522.21C201.92,-510.02 211.16,-493.32 218.8,-479.49"/>
<polygon fill="black" stroke="black" points="222.01,-480.91 223.79,-470.47 215.89,-477.53 222.01,-480.91"/>
<text text-anchor="middle" x="222.4" y="-492.8" font-family="Times,serif" font-size="14.00">36</text>
</g>
<!-- n101_37 -->
<g id="node20" class="node">
<title>n101_37</title>
<ellipse fill="none" stroke="black" cx="403.9" cy="-366" rx="42.79" ry="18"/>
<text text-anchor="middle" x="403.9" y="-362.3" font-family="Times,serif" font-size="14.00">101,37</text>
</g>
<!-- n101_37&#45;&gt;n140_139 -->
<g id="edge20" class="edge">
<title>n101_37&#45;&gt;n140_139</title>
<path fill="none" stroke="black" d="M409.69,-347.97C414.95,-330.96 421.9,-303.98 421.9,-280 421.9,-280 421.9,-280 421.9,-104 421.9,-48.47 351.48,-29.13 298.25,-22.45"/>
<polygon fill="black" stroke="black" points="298.52,-18.96 288.19,-21.31 297.73,-25.91 298.52,-18.96"/>
<text text-anchor="middle" x="435.9" y="-188.3" font-family="Times,serif" font-size="14.00">857</text>
</g>
<!-- n99_63 -->
<g id="node21" class="node">
<title>n99_63</title>
<ellipse fill="none" stroke="black" cx="350.9" cy="-279" rx="37.09" ry="18"/>
<text text-anchor="middle" x="350.9" y="-275.3" font-family="Times,serif" font-size="14.00">99,63</text>
</g>
<!-- n101_37&#45;&gt;n99_63 -->
<g id="edge21" class="edge">
<title>n101_37&#45;&gt;n99_63</title>
<path fill="none" stroke="black" d="M393.43,-348.21C385.75,-335.9 375.21,-319 366.54,-305.09"/>
<polygon fill="black" stroke="black" points="369.43,-303.1 361.17,-296.47 363.49,-306.81 369.43,-303.1"/>
<text text-anchor="middle" x="389.4" y="-318.8" font-family="Times,serif" font-size="14.00">96</text>
</g>
<!-- n99_63&#45;&gt;n140_139 -->
<g id="edge36" class="edge">
<title>n99_63&#45;&gt;n140_139</title>
<path fill="none" stroke="black" d="M354.43,-260.92C360.78,-225.57 370.53,-143.01 336.9,-87 323.61,-64.88 300.06,-48.12 279.49,-36.76"/>
<polygon fill="black" stroke="black" points="281.07,-33.64 270.59,-32.08 277.81,-39.84 281.07,-33.64"/>
<text text-anchor="middle" x="371.9" y="-144.8" font-family="Times,serif" font-size="14.00">869</text>
</g>
<!-- n99_63&#45;&gt;n101_87 -->
<g id="edge37" class="edge">
<title>n99_63&#45;&gt;n101_87</title>
<path fill="none" stroke="black" d="M341.81,-261.21C335.26,-249.1 326.29,-232.53 318.84,-218.76"/>
<polygon fill="black" stroke="black" points="321.8,-216.89 313.97,-209.76 315.65,-220.22 321.8,-216.89"/>
<text text-anchor="middle" x="339.4" y="-231.8" font-family="Times,serif" font-size="14.00">82</text>
</g>
<!-- n85_35&#45;&gt;n101_37 -->
<g id="edge24" class="edge">
<title>n85_35&#45;&gt;n101_37</title>
<path fill="none" stroke="black" d="M339.39,-436.41C351.26,-423.63 368.26,-405.34 381.83,-390.74"/>
<polygon fill="black" stroke="black" points="384.72,-392.78 388.96,-383.07 379.59,-388.01 384.72,-392.78"/>
<text text-anchor="middle" x="378.4" y="-405.8" font-family="Times,serif" font-size="14.00">58</text>
</g>
<!-- n75_63 -->
<g id="node23" class="node">
<title>n75_63</title>
<ellipse fill="none" stroke="black" cx="298.9" cy="-366" rx="37.09" ry="18"/>
<text text-anchor="middle" x="298.9" y="-362.3" font-family="Times,serif" font-size="14.00">75,63</text>
</g>
<!-- n85_35&#45;&gt;n75_63 -->
<g id="edge25" class="edge">
<title>n85_35&#45;&gt;n75_63</title>
<path fill="none" stroke="black" d="M319.63,-434.8C316.02,-422.97 311.14,-407.03 307.03,-393.58"/>
<polygon fill="black" stroke="black" points="310.33,-392.42 304.06,-383.89 303.64,-394.47 310.33,-392.42"/>
<text text-anchor="middle" x="327.9" y="-405.8" font-family="Times,serif" font-size="14.00">210</text>
</g>
<!-- n75_63&#45;&gt;n83_75 -->
<g id="edge35" class="edge">
<title>n75_63&#45;&gt;n83_75</title>
<path fill="none" stroke="black" d="M290.01,-348.21C283.6,-336.1 274.83,-319.53 267.53,-305.76"/>
<polygon fill="black" stroke="black" points="270.54,-303.96 262.77,-296.76 264.35,-307.23 270.54,-303.96"/>
<text text-anchor="middle" x="289.4" y="-318.8" font-family="Times,serif" font-size="14.00">48</text>
</g>
<!-- n75_63&#45;&gt;n99_63 -->
<g id="edge34" class="edge">
<title>n75_63&#45;&gt;n99_63</title>
<path fill="none" stroke="black" d="M308.92,-348.61C316.48,-336.26 326.97,-319.12 335.57,-305.05"/>
<polygon fill="black" stroke="black" points="338.67,-306.7 340.9,-296.34 332.7,-303.04 338.67,-306.7"/>
<text text-anchor="middle" x="341.9" y="-318.8" font-family="Times,serif" font-size="14.00">148</text>
</g>
<!-- n101_87&#45;&gt;n140_139 -->
<g id="edge48" class="edge">
<title>n101_87&#45;&gt;n140_139</title>
<path fill="none" stroke="black" d="M306.09,-173.93C307,-152.9 306.73,-116.36 296.9,-87 291.59,-71.16 289.26,-67.1 278.9,-54 275.44,-49.63 271.4,-45.35 267.26,-41.36"/>
<polygon fill="black" stroke="black" points="269.55,-38.71 259.8,-34.55 264.83,-43.88 269.55,-38.71"/>
<text text-anchor="middle" x="318.9" y="-101.3" font-family="Times,serif" font-size="14.00">523</text>
</g>
<!-- n101_87&#45;&gt;n99_99 -->
<g id="edge49" class="edge">
<title>n101_87&#45;&gt;n99_99</title>
<path fill="none" stroke="black" d="M294.23,-174.21C286.41,-161.9 275.67,-145 266.84,-131.09"/>
<polygon fill="black" stroke="black" points="269.68,-129.03 261.36,-122.47 263.77,-132.79 269.68,-129.03"/>
<text text-anchor="middle" x="291.4" y="-144.8" font-family="Times,serif" font-size="14.00">50</text>
</g>
<!-- n55_59&#45;&gt;n57_75 -->
<g id="edge29" class="edge">
<title>n55_59&#45;&gt;n57_75</title>
<path fill="none" stroke="black" d="M224.34,-435.2C221.69,-429.53 218.93,-423.08 216.9,-417 214.48,-409.78 212.45,-401.8 210.82,-394.37"/>
<polygon fill="black" stroke="black" points="214.21,-393.47 208.78,-384.37 207.35,-394.87 214.21,-393.47"/>
<text text-anchor="middle" x="226.4" y="-405.8" font-family="Times,serif" font-size="14.00">46</text>
</g>
<!-- n55_59&#45;&gt;n75_63 -->
<g id="edge28" class="edge">
<title>n55_59&#45;&gt;n75_63</title>
<path fill="none" stroke="black" d="M245.31,-436.01C255.11,-423.39 268.95,-405.57 280.1,-391.2"/>
<polygon fill="black" stroke="black" points="282.94,-393.25 286.31,-383.21 277.42,-388.96 282.94,-393.25"/>
<text text-anchor="middle" x="283.9" y="-405.8" font-family="Times,serif" font-size="14.00">116</text>
</g>
<!-- n111_11&#45;&gt;n140_139 -->
<g id="edge40" class="edge">
<title>n111_11&#45;&gt;n140_139</title>
<path fill="none" stroke="black" d="M440.91,-436.38C456.95,-420.64 477.9,-394.77 477.9,-367 477.9,-367 477.9,-367 477.9,-104 477.9,-68.6 447.96,-69 415.9,-54 378.65,-36.58 333.04,-27.82 297.58,-23.42"/>
<polygon fill="black" stroke="black" points="297.73,-19.91 287.39,-22.24 296.92,-26.87 297.73,-19.91"/>
<text text-anchor="middle" x="496.4" y="-231.8" font-family="Times,serif" font-size="14.00">1169</text>
</g>
<!-- n111_11&#45;&gt;n101_37 -->
<g id="edge41" class="edge">
<title>n111_11&#45;&gt;n101_37</title>
<path fill="none" stroke="black" d="M419.05,-434.8C416.45,-423.16 412.96,-407.55 409.98,-394.24"/>
<polygon fill="black" stroke="black" points="413.33,-393.17 407.74,-384.18 406.5,-394.7 413.33,-393.17"/>
<text text-anchor="middle" x="427.9" y="-405.8" font-family="Times,serif" font-size="14.00">184</text>
</g>
<!-- n33_5&#45;&gt;n57_7 -->
<g id="edge38" class="edge">
<title>n33_5&#45;&gt;n57_7</title>
<path fill="none" stroke="black" d="M292.4,-696.21C297.76,-684.22 305.08,-667.85 311.2,-654.16"/>
<polygon fill="black" stroke="black" points="314.52,-655.32 315.4,-644.76 308.13,-652.46 314.52,-655.32"/>
<text text-anchor="middle" x="320.9" y="-666.8" font-family="Times,serif" font-size="14.00">138</text>
</g>
<!-- n33_5&#45;&gt;n39_33 -->
<g id="edge39" class="edge">
<title>n33_5&#45;&gt;n39_33</title>
<path fill="none" stroke="black" d="M275.64,-696.61C268.78,-684.46 259.29,-667.66 251.42,-653.73"/>
<polygon fill="black" stroke="black" points="254.25,-651.62 246.29,-644.63 248.16,-655.06 254.25,-651.62"/>
<text text-anchor="middle" x="277.9" y="-666.8" font-family="Times,serif" font-size="14.00">154</text>
</g>
</g>
</svg>
